<svg viewBox="0 0 24 24" version="1.1" xmlns="http://www.w3.org/2000/svg">
  <path fill="currentColor" transform="translate(1549.238281 562.617188)" d="M0 0c3.4178 1.7113 6.1076 3.9956 8.9492 6.5078 1.1567 1.0011 2.3142 2.0011 3.4727 3 0.5673 0.4911 1.1347 0.9823 1.7192 1.4883 2.9958 2.5634 6.0947 4.9954 9.1831 7.4453 3.4684 2.7625 6.8918 5.5789 10.3203 8.3906 3.6963 3.0286 7.4072 6.0391 11.1172 9.0508 6.3453 5.1522 12.6779 10.3195 19 15.5 1.8332 1.5002 3.6666 3.0002 5.5 4.5 22 18 22 18 24.7735 20.2695 1.7547 1.4355 3.5099 2.8705 5.2656 4.3047 2.8221 2.3064 5.6423 4.6151 8.4609 6.9258 0.9562 0.7838 0.9562 0.7838 1.9317 1.5835 7.9179 6.495 15.8083 13.0164 23.6069 19.6543 3.8934 3.3051 7.865 6.4975 11.8677 9.6685 3.6477 2.9445 7.2083 5.9882 10.7773 9.0273 3.2307 2.7442 6.4934 5.4339 9.8164 8.0664 4.4526 3.5288 8.7869 7.1823 13.1133 10.8633 4.3163 3.6679 8.6915 7.258 13.0859 10.832 3.0686 2.525 6.0912 5.0996 9.1133 7.6797 4.436 3.7829 8.9535 7.4303 13.5625 11 5.7437 4.4543 11.2524 9.1343 16.7212 13.9204 5.3679 4.6947 10.8564 9.2234 16.4038 13.7046 5.8817 4.7778 11.7245 9.5948 17.5 14.5 4.7742 4.0542 9.5888 8.0522 14.4453 12.0078 3.7363 3.0482 7.4585 6.1133 11.1797 9.1797 0.7198 0.593 1.4396 1.186 2.1812 1.7969 2.9808 2.4558 5.9613 4.912 8.9419 7.3682 8.5722 7.0636 17.1498 14.1202 25.7519 21.1474 1.8335 1.4999 3.6668 2.9999 5.5 4.5 0.914 0.7477 1.8279 1.4953 2.7696 2.2656 1.7686 1.4474 3.5369 2.8953 5.3046 4.3438 6.1588 5.0449 12.3333 10.0702 18.5157 15.0862 3.8789 3.1484 7.7436 6.313 11.5976 9.4919 0.8534 0.691 1.7067 1.3819 2.586 2.0938 2.0476 1.6663 4.0656 3.3548 6.0781 5.0625 1.1529 0.9488 2.3065 1.8967 3.4609 2.8437 0.7912 0.6887 0.7912 0.6887 1.5984 1.3914 1.7072 1.4489 1.7072 1.4489 4.5891 2.9211 4.566-1.099 8.3142-3.1783 12.3321-5.5625 0.5888-0.3472 1.1777-0.6945 1.7845-1.0523 1.9018-1.1231 3.7989-2.254 5.6959-3.3852 1.3223-0.7829 2.6449-1.5653 3.9678-2.3472 2.5933-1.5335 5.1848-3.0699 7.7749-4.6088 3.4187-2.0305 6.8479-4.0426 10.2805-6.0494 6.421-3.7554 12.8004-7.5776 19.1719-11.4165 9.6845-5.8336 19.4061-11.5779 29.2405-17.1552 9.1298-5.1848 18.1547-10.543 27.1831-15.9019 4.5558-2.6975 9.1275-5.3681 13.697-8.0425 5.5429-3.2565 10.9993-6.6406 16.4304-10.0801 2.4414-1.3984 2.4414-1.3984 4.4414-1.3984 0-67.65 0-135.3 0-205 27.06 0 54.12 0 82 0 0.33 50.16 0.66 100.32 1 152 17.2735-10.1806 17.2735-10.1806 34.375-20.625 10.6602-6.6022 21.4141-13.0341 32.2057-19.4184 9.2604-5.4787 18.4843-11.0077 27.6498-16.6441 3.5325-2.1722 7.0847-4.3104 10.6445-6.4375 7.1234-4.2599 14.2186-8.5661 21.3125-12.875 0.9015-0.5474 0.9015-0.5474 1.8211-1.1058 6.0683-3.6849 12.1354-7.3714 18.1974-11.0665 14.5084-8.8426 29.0684-17.5915 43.6973-26.2334 7.1523-4.2285 14.2615-8.5166 21.3289-12.8855 3.0943-1.9103 6.2064-3.785 9.3303-5.6463 7.5021-4.483 14.9692-9.0235 22.4375-13.5625 10.463-6.358 20.9412-12.6888 31.4536-18.9648 2.7037-1.6147 5.4063-3.2312 8.1089-4.8477 0.8463-0.5044 1.6926-1.0088 2.5645-1.5286 0.805-0.4817 1.61-0.9634 2.4394-1.4597 1.1488-0.6857 1.1488-0.6857 2.3208-1.3852 1.8853-1.1725 3.6614-2.4231 5.4527-3.732 2.6601-1.582 2.6601-1.582 4.6757-1.6523 2.9879 1.6116 5.309 3.8592 7.7344 6.1953 1.0749 1.0111 2.1504 2.0215 3.2266 3.0313 0.5198 0.4911 1.0396 0.9822 1.5752 1.4882 1.8207 1.7041 3.6875 3.3488 5.5732 4.9805 2.9353 2.5419 5.8164 5.1358 8.6875 7.75 3.3769 3.0536 6.8197 5.9693 10.375 8.8125 6.0657 4.9025 11.6942 10.2351 17.3672 15.582 3.1231 2.9408 6.308 5.7945 9.5586 8.5938 2.3233 2.0155 4.6042 4.0752 6.8867 6.1367 3.6243 3.2707 7.2789 6.5017 10.961 9.707 2.2419 1.9714 4.4529 3.9746 6.664 5.9805 4.0023 3.6162 8.0779 7.1326 12.1875 10.625 5.3543 4.5554 10.5629 9.2414 15.7075 14.0318 3.4541 3.2157 6.9545 6.361 10.523 9.4487 2.3426 2.0433 4.6498 4.1238 6.957 6.207 2.9806 2.6898 5.9725 5.3631 9 8 5.5898 4.8714 11.0754 9.859 16.5781 14.8281 4.4231 3.989 8.8681 7.9476 13.3594 11.8594 3.2363 2.844 6.4266 5.7386 9.625 8.625 2.1317 1.9131 4.2777 3.8064 6.4375 5.6875 5.558 4.8437 11.0285 9.7867 16.4727 14.7578 4.147 3.7725 8.3373 7.4264 12.7148 10.9297 6.0672 4.9037 11.6969 10.2376 17.3711 15.5859 3.1026 2.9216 6.2683 5.7533 9.5 8.5313 2.4585 2.1469 4.8517 4.3607 7.2539 6.5703 3.7203 3.4003 7.512 6.6517 11.4375 9.8125 3.7615 3.0359 7.2272 6.1704 10.586 9.6406 2.3855 2.3968 4.9366 4.5811 7.496 6.7891 2.4164 2.0986 4.7933 4.2372 7.168 6.3828 5.3234 4.7991 10.6887 9.5408 16.1524 14.1797 7.123 6.0557 14.0814 12.2446 20.9257 18.6133 6.6579 6.2317 6.6579 6.2317 13.9219 11.707 0 0.66 0 1.32 0 2 0.8121 0.3365 0.8121 0.3365 1.6406 0.6797 3.0947 1.7318 5.5387 4.0365 8.1094 6.4453 0.5066 0.4679 1.0132 0.9359 1.5352 1.418 1.242 1.1483 2.4789 2.3021 3.7148 3.457 6.8235-5.0493 13.4889-10.2886 20.1533-15.5444 2.9461-2.3221 5.8966-4.6387 8.8467-6.9556 1.1667-0.9166 2.3334-1.8333 3.5-2.75 7-5.5 7-5.5 8.751-6.8757 1.1635-0.9142 2.3269-1.8284 3.4902-2.7427 2.9654-2.3304 5.9317-4.6597 8.8994-6.9871 5.0537-3.9646 10.1054-7.9297 15.1094-11.957 4.5823-3.6808 9.228-7.2767 13.875-10.875 6.7105-5.198 13.3431-10.4796 19.897-15.8738 3.2204-2.6424 6.4649-5.254 9.7515-7.8137 0.6411-0.5027 1.2823-1.0055 1.9428-1.5234 1.7837-1.1016 1.7837-1.1016 4.7837-1.1016 1.8159 2.0425 3.4396 4.0619 5.0625 6.25 0.9893 1.2981 1.9803 2.5949 2.9727 3.8906 0.4977 0.6529 0.9955 1.3059 1.5083 1.9786 2.0827 2.6894 4.2615 5.282 6.4565 7.8808 4.0504 4.8182 7.949 9.7331 11.8089 14.7034 3.6841 4.7175 7.5224 9.2871 11.4877 13.771 3.1482 3.6283 5.4349 7.3202 7.7034 11.5256-0.8108 0.6175-1.6216 1.2349-2.457 1.8711-7.2978 5.5747-14.4559 11.2876-21.543 17.1289-2.6005 2.1295-5.2056 4.2534-7.8125 6.375-0.6821 0.5552-1.3641 1.1104-2.0669 1.6824-4.3992 3.571-8.8381 7.0857-13.3081 10.5676-5.0815 3.9602-10.0204 8.0571-14.9143 12.2461-4.5089 3.8419-9.1414 7.5074-13.8127 11.1489-4.4209 3.4481-8.7753 6.9686-13.105 10.5308-9.6008 7.8895-19.2629 15.7042-28.9805 23.4492-2.48 1.9781-4.9589 3.9576-7.4375 5.9375-0.5847 0.4661-1.1693 0.9322-1.7717 1.4124-1.1961 0.9555-2.3784 1.9285-3.5465 2.9179-2.2443 1.7322-2.2443 1.7322-4.993 3.2617-4.036 2.5356-7.4398 4.8684-8.8901 9.519-1.0732 6.4113-0.8272 12.9217-0.7426 19.3989-0.0112 2.2316-0.0272 4.4633-0.0476 6.6949-0.0421 6.155-0.0155 12.3081 0.0221 18.463 0.0258 5.9978-3e-4 11.9952-0.0249 17.9929-0.0489 12.4172-0.0457 24.8339-0.014 37.2511 0.0319 12.5839 0.0399 25.1675 0.0187 37.7515-13e-4 0.7947-26e-4 1.5895-4e-3 2.4083-55e-4 3.2367-0.0111 6.4734-0.0169 9.7102-0.0545 30.1509-0.0548 60.3017-0.0207 90.4527 0.0329 29.0589 0.0474 58.1178 0.0357 87.1768-7e-4 1.8241-14e-4 3.6482-21e-4 5.4723-29e-4 7.3302-58e-4 14.6603-89e-4 21.9904-85e-4 20.4915-0.0132 40.983-0.0151 61.4744 0 0.9332-1e-4 1.8664-2e-4 2.8278-24e-4 29.7402 0.0119 59.4804 0.0378 89.2206 8e-4 0.9648 16e-4 1.9296 25e-4 2.9236 0.0136 15.6676 0.0281 31.3353 0.0426 47.003 0.0576 62.1419 0.0622 124.2837 0.0178 186.4256-0.0112 15.6597-0.0222 31.3195-0.0326 46.9792-7e-4 0.9642-13e-4 1.9284-2e-3 2.9218-0.0196 29.7089-0.0268 59.4177-0.0204 89.1266 2e-4 0.9325 4e-4 1.865 6e-4 2.8257 47e-4 20.4686 0.0125 40.9372 0.0233 61.4058 39e-4 7.3237 76e-4 14.6473 0.0112 21.9709 1e-3 1.822 19e-4 3.644 28e-4 5.4659 0.0142 27.246 66e-4 54.492-0.0156 81.738-0.026 31.8665-0.0183 63.7327 0.0417 95.5991 59e-4 3.2266 0.0117 6.4531 0.0173 9.6797 14e-4 0.7919 28e-4 1.5837 43e-4 2.3996 0.0213 12.5514 91e-4 25.1026-0.0168 37.654-0.0249 12.3343-0.0141 24.6681 0.0349 37.0023 0.0253 6.6013 0.0335 13.2017-14e-4 19.803-0.0314 6.0007-0.0171 11.9995 0.0343 18 0.0104 2.1619 39e-4 4.3239-0.0212 6.4857-0.4701 11.2968-0.4701 11.2968 3.5019 21.4818 2.493 2.2805 4.9058 4.0419 7.7963 5.7744 1.0003 0.8353 2.0006 1.6706 3.0313 2.5313 0.8147 0.6496 1.6293 1.2993 2.4687 1.9687 5.3375 4.3212 10.42 8.8818 15.5 13.5 5.1655 4.6054 10.4449 9.0733 15.7341 13.5352 6.1688 5.2125 12.2638 10.5091 18.3587 15.8076 2.5106 2.1815 5.0241 4.3597 7.5378 6.5376 1.2445 1.0782 2.4888 2.1567 3.7329 3.2353 3.1849 2.7613 6.3718 5.5201 9.5623 8.2749 5.4855 4.7399 10.9619 9.4799 16.3242 14.3594 9.1887 8.5995 9.1887 8.5995 19.75 15.25 14.5233-9.8513 29.0438-19.7065 43.5537-29.5774 8.4727-5.7628 16.9521-11.5157 25.4323-17.2674 7.6161-5.166 15.2257-10.3416 22.8265-15.5302 20.9869-14.3206 42.0112-28.5855 63.1875-42.625 2.5 1.375 2.5 1.375 5 3 0 0.66 0 1.32 0 2 0.5946 0.2679 1.1892 0.5358 1.8018 0.8118 2.2206 1.2003 3.6226 2.3952 5.3701 4.1999 0.578 0.5896 1.156 1.1792 1.7515 1.7867 0.6028 0.6234 1.2056 1.2468 1.8266 1.8891 4.3471 4.4279 8.7089 8.7157 13.4453 12.7305 3.4402 3.0157 6.6019 6.3186 9.8047 9.582 1.3322 1.3345 2.6652 2.6682 4 4-5.9986 5.5653-12.0389 10.9462-18.4726 16.0078-4.5633 3.5971-9.0355 7.3067-13.5274 10.9922-1.8331 1.5003-3.6664 3.0003-5.5 4.5-2.6921 2.2023-5.3839 4.4049-8.0742 6.6094-5.3616 4.3919-10.7338 8.7706-16.1133 13.1406-0.6796 0.5521-1.3593 1.1043-2.0596 1.6731-3.4112 2.7706-6.8235 5.5398-10.2373 8.3074-1.3178 1.0689-2.6355 2.1379-3.9531 3.207-0.6556 0.5319-1.3111 1.0638-1.9866 1.6118-4.9219 3.9993-9.8135 8.0344-14.7009 12.0757-5.7125 4.7225-11.4896 9.3453-17.3393 13.8963-4.5722 3.5739-9.0064 7.2928-13.419 11.061-3.9978 3.4103-8.0673 6.7139-12.1831 9.9802-5.9119 4.7068-11.7298 9.5308-17.5586 14.3399-6.6861 5.5154-13.3749 11.0206-20.1601 16.414-5.9587 4.7927-11.8366 9.6852-17.7349 14.5518-4.3159 3.557-8.649 7.0931-12.98 10.6318-1.2626 1.0345-1.2626 1.0345-2.5508 2.0899-6.165 5.0507-12.3476 10.0797-18.5346 15.1035-5.6495 4.5884-11.2851 9.1937-16.9146 13.8066-2.7484 2.2491-5.4971 4.4977-8.2461 6.7461-1.8473 1.5119-3.6936 3.0249-5.539 4.5391-4.2601 3.4931-8.528 6.9733-12.8399 10.4023-4.6671 3.7203-9.2724 7.513-13.875 11.3125-5.3692 4.4323-10.7587 8.833-16.207 13.168-5.7865 4.6233-11.4926 9.3466-17.207 14.0586-8.4518 6.9688-16.9263 13.9077-25.4336 20.8086-4.897 3.9726-9.775 7.9682-14.6524 11.9648-1.8332 1.5002-3.6665 3.0002-5.5 4.5-0.9075 0.7425-1.815 1.485-2.75 2.25-8.25 6.75-8.25 6.75-10.9961 8.9961-1.8473 1.5119-3.6936 3.0249-5.539 4.5391-4.2601 3.4931-8.528 6.9733-12.8399 10.4023-3.9277 3.1296-7.8094 6.3116-11.6804 9.5108-2.9213 2.4128-5.8501 4.8166-8.7786 7.2207-1.6321 1.3468-3.2519 2.7085-4.8691 4.0732-1.1679 0.9629-1.1679 0.9629-2.3594 1.9453-0.9532 0.8025-0.9532 0.8025-1.9258 1.6211-1.7617 0.9414-1.7617 0.9414-3.6132 0.9141-3.185-1.4419-5.6179-3.6776-8.211-5.9727-1.1673-1.0112-2.3352-2.0216-3.5039-3.0312-0.8703-0.7561-0.8703-0.7561-1.7583-1.5274-2.355-2.0262-4.7619-3.9852-7.1753-5.9414-4.6045-3.7479-9.1402-7.5698-13.664-11.4141-3.4166-2.8983-6.861-5.7574-10.336-8.5859-4.6045-3.7479-9.1402-7.5698-13.664-11.4141-3.4166-2.8983-6.861-5.7574-10.336-8.5859-4.0398-3.2882-8.0308-6.6273-12-10-5.7754-4.9054-11.6199-9.7203-17.5-14.5-6.4453-5.2392-12.8342-10.5354-19.1636-15.9136-3.4166-2.8986-6.8613-5.7578-10.3364-8.5864-4.6045-3.7479-9.1402-7.5698-13.664-11.4141-3.4166-2.8983-6.861-5.7574-10.336-8.5859-4.6045-3.7479-9.1402-7.5698-13.664-11.4141-3.4166-2.8983-6.861-5.7574-10.336-8.5859-4.6045-3.7479-9.1402-7.5698-13.664-11.4141-3.4166-2.8983-6.861-5.7574-10.336-8.5859-4.6045-3.7479-9.1402-7.5698-13.664-11.4141-3.4166-2.8983-6.861-5.7574-10.336-8.5859-4.6045-3.7479-9.1402-7.5698-13.664-11.4141-4.3011-3.6487-8.6594-7.2223-13.0352-10.7812-3.0685-2.525-6.0912-5.0995-9.1133-7.6797-4.436-3.7829-8.9535-7.4303-13.5625-11-5.7453-4.4555-11.2559-9.1364-16.7256-13.9248-4.466-3.9069-9.0097-7.6977-13.6259-11.4268-2.1013-1.7224-4.1743-3.4638-6.2344-5.2343-0.5883-0.5045-1.1766-1.009-1.7827-1.5288-1.1469-0.9862-2.2906-1.9759-3.4307-2.9698-2.4439-2.0985-4.2357-3.5105-7.3257-4.5405-2.4992 1.4757-4.7816 2.9911-7.125 4.6875-0.7043 0.4975-1.4086 0.995-2.1343 1.5076-1.4947 1.0572-2.9864 2.119-4.4751 3.1848-2.1952 1.5698-4.4 3.1249-6.6093 4.6748-7.1452 5.0159-14.2556 10.0802-21.3548 15.1609-6.681 4.7781-13.3968 9.507-20.1106 14.239-2.199 1.5511-4.3963 3.1045-6.5932 4.6587-8.4994 6.0111-17.024 11.982-25.5977 17.8867-2.9699-2.6086-4.6514-5.641-6.582-9.0664-0.3367-0.5935-0.6733-1.187-1.0202-1.7986-1.0747-1.8966-2.1428-3.7968-3.2103-5.6975-1.0548-1.8693-2.1111-3.7378-3.1687-5.6055-0.6893-1.2188-1.3766-2.4387-2.0618-3.6598-2.52-4.4724-5.208-8.8142-8.03-13.1016-0.927-2.0706-0.927-2.0706-0.6863-4.2464 1.0674-2.5645 2.5036-3.3735 4.8218-4.8867 0.9101-0.6071 1.8202-1.2143 2.7578-1.8398 1.0493-0.6923 2.0986-1.3845 3.1797-2.0977 1.8241-1.246 3.6416-2.5014 5.4588-3.7576 7.4692-5.1616 14.9716-10.2755 22.466-15.4006 7.0492-4.8214 14.088-9.6578 21.1236-14.499 3.9855-2.7421 7.9723-5.4822 11.9589-8.2227 3.2962-2.2659 6.5921-4.5323 9.8872-6.7998 8.0044-5.507 16.0183-10.9998 24.0384-16.4839 5.0273-3.4384 10.0496-6.8838 15.0671-10.3364 5.975-4.1103 11.9542-8.2144 17.9375-12.3125 0.7689-0.5272 1.5379-1.0544 2.3301-1.5976 1.1186-0.7657 1.1186-0.7657 2.2598-1.5469 0.9705-0.6648 0.9705-0.6648 1.9607-1.343 2.5119-1.7 2.5119-1.7 4.6839-2.5583 2.9491-1.4014 4.7059-2.6372 6.828-5.1417 1.4302-5.8447 1.2505-11.6533 1.1967-17.6418 0.0161-1.8439 0.0361-3.6877 0.0597-5.5315 0.0531-5.0697 0.0499-10.1379 0.0374-15.2078-39e-4-5.4666 0.0437-10.9329 0.0845-16.3993 0.0709-10.7119 0.0919-21.4233 0.0934-32.1354 16e-4-8.7083 0.0177-17.4165 0.0442-26.1248 0.0735-24.69 0.1104-49.3796 0.0988-74.0697-3e-4-0.6655-6e-4-1.3309-9e-4-2.0165-7e-4-1.3457-13e-4-2.6914-2e-3-4.037-96e-4-20.9268 0.0508-41.8524 0.1651-62.7788 0.1283-23.5172 0.1991-47.0339 0.1887-70.5515-43e-4-12.4495 0.0174-24.8978 0.1069-37.347 0.0757-10.6021 0.0923-21.2023 0.0327-31.8045-0.0288-5.4084-0.0303-10.8132 0.0424-16.2213 1.5237-21.9298 1.5237-21.9298-5.8378-41.4689-3.4207-3.0233-6.9934-5.0487-11.2101-6.7586-3.2399-1.3974-5.8786-3.3948-8.7247-5.4681-27.4673-17.6501-59.0306-29.8003-91.375-34.4375-1.0755-0.1544-1.0755-0.1544-2.1728-0.312-55.5999-7.5623-116.2636 4.6008-161.8272 38.312-1.271 0.7827-1.271 0.7827-2.5678 1.5813-2.7649 2.7496-3.0252 4.2534-3.0872 8.084 0.0197 1.1345 0.0197 1.1345 0.0398 2.292-58e-4 0.8117-0.0116 1.6233-0.0175 2.4596-0.0133 2.7374 92e-4 5.4735 0.0314 8.2109-21e-4 1.9751-65e-4 3.9502-0.0129 5.9253-0.0112 5.4411 89e-4 10.8817 0.0339 16.3227 0.0215 5.8623 0.0143 11.7246 0.0105 17.5869-26e-4 10.1614 0.0131 20.3226 0.0412 30.4839 0.0294 10.6586 0.0488 21.3172 0.0542 31.9759 4e-4 0.6624 7e-4 1.3248 11e-4 2.0073 17e-4 3.3639 32e-4 6.7278 46e-4 10.0917 0.0105 23.8347 0.0442 47.6693 0.0915 71.5039 0.0459 23.1569 0.0814 46.3138 0.1026 69.4707 6e-4 0.7136 13e-4 1.4273 2e-3 2.1625 65e-4 7.1665 0.0129 14.333 0.0191 21.4995 0.0127 14.5994 0.0268 29.1988 0.0418 43.7982 7e-4 0.6712 14e-4 1.3425 21e-4 2.0341 0.046 44.8366 0.1253 89.6731 0.2096 134.5096 1.88-1.2493 3.7595-2.4995 5.6387-3.75 1.0467-0.6961 2.0933-1.3922 3.1717-2.1094 4.9414-3.3162 9.8148-6.7276 14.6896-10.1406 6.7688-4.7242 13.548-9.4147 20.4375-13.9609 4.1284-2.7488 8.22-5.5499 12.3125-8.3516 0.808-0.5515 1.616-1.1031 2.4485-1.6714 4.0014-2.7357 7.9856-5.4915 11.9382-8.2973 1.0891-0.7671 1.0891-0.7671 2.2002-1.5496 1.3682-0.965 2.7311-1.9375 4.0879-2.9185 3.4013-2.3896 4.7932-3.2507 9.0752-3.2507 0.99 0.66 1.98 1.32 3 2 0 0.66 0 1.32 0 2 0.562 0.2333 1.1241 0.4667 1.7031 0.707 2.8643 1.6124 4.7694 3.6124 7.0469 5.9805 2.9028 2.9618 5.7862 5.8663 8.9375 8.5625 4.1567 3.5887 8.2504 7.2424 12.3125 10.9375 0.6841 0.6068 1.3682 1.2137 2.073 1.8389 0.6359 0.583 1.2718 1.1659 1.927 1.7666 0.8663 0.7815 0.8663 0.7815 1.75 1.5788 1.25 1.6282 1.25 1.6282 1.25 5.6282-2.2287 1.9859-4.3825 3.6672-6.8125 5.375-0.7141 0.5182-1.4283 1.0364-2.164 1.5703-1.5376 1.1154-3.0789 2.2255-4.6236 3.3311-3.995 2.8693-7.9439 5.8009-11.8999 8.7236-1.6145 1.1876-3.2291 2.3751-4.8437 3.5625-4.2369 3.1219-8.451 6.2731-12.6563 9.4375-8.951 6.7332-17.9757 13.3655-27 20-9.2987 6.8388-18.5959 13.677-27.8164 20.6211-3.2257 2.4104-6.4693 4.7949-9.7161 7.1768-7.8217 5.739-15.5785 11.5525-23.28 17.4521-6.3147 4.8355-12.6649 9.5903-19.1645 14.1738-4.9738 3.5144-9.8404 7.1623-14.7029 10.8284-5.3299 4.0152-10.6935 7.9828-16.0701 11.9353-5.0995 3.7497-10.1929 7.5056-15.25 11.3125-4.9739 3.7443-9.9837 7.4378-15 11.125-6.6943 4.922-13.3589 9.8814-20 14.875-11.1639 8.3922-22.4093 16.6719-33.6758 24.9258-8.443 6.1935-16.8229 12.458-25.1367 18.8242-6.3148 4.8353-12.6648 9.5903-19.1645 14.1738-4.9768 3.5165-9.8462 7.1668-14.7117 10.835-5.2439 3.9503-10.5208 7.8536-15.8113 11.7412-5.8798 4.3209-11.7364 8.6695-17.5625 13.0625-5.5724 4.2004-11.2047 8.308-16.875 12.375-6.654 4.7742-13.1848 9.6839-19.6677 14.6873-5.0619 3.8924-10.2032 7.6579-15.3948 11.3752-5.8888 4.218-11.6994 8.5166-17.4375 12.9375-8.3511 6.4323-16.8103 12.7076-25.3262 18.9199-2.1487 1.5783-4.28 3.1774-6.4082 4.7832-1.2549 0.9326-2.5101 1.8649-3.7656 2.7969-0.561 0.4314-1.1219 0.8629-1.6999 1.3074-3.8438 2.8205-3.8438 2.8205-6.345 2.5054-3.4152-1.27-5.9001-3.8535-8.5801-6.2503-1.2608-1.1052-2.5225-2.2093-3.7851-3.3125-0.6215-0.5453-1.243-1.0905-1.8833-1.6523-2.3803-2.0656-4.8183-4.0542-7.2691-6.0352-4.2515-3.45-8.4172-6.9866-12.5625-10.5625-4.7164-4.0665-9.4959-8.0214-14.3828-11.8828-3.6132-2.906-7.1369-5.9136-10.6682-8.9182-3.4324-2.9167-6.8925-5.7935-10.3865-8.6365-4.6053-3.7485-9.142-7.5708-13.6662-11.4162-3.3933-2.8792-6.8165-5.7158-10.2713-8.5213-4.863-3.9569-9.6195-8.0268-14.3686-12.1186-4.4142-3.7955-8.8972-7.4967-13.4165-11.1665-3.1213-2.5594-6.2019-5.1633-9.2774-7.7774-3.969-3.3728-7.9602-6.7118-12-10-4.6045-3.7479-9.1402-7.5698-13.664-11.4141-3.4166-2.8983-6.861-5.7574-10.336-8.5859-4.6045-3.7479-9.1402-7.5698-13.664-11.4141-3.4166-2.8983-6.861-5.7574-10.336-8.5859-4.6045-3.7479-9.1402-7.5698-13.664-11.4141-3.4166-2.8983-6.861-5.7574-10.336-8.5859-3.9129-3.1856-7.7815-6.4187-11.625-9.6875-5.0834-4.3222-10.2176-8.5789-15.375-12.8125-7.2248-5.933-14.3803-11.9414-21.5-18-7.0114-5.9611-14.0496-11.8776-21.1875-17.6875-3.1305-2.574-6.2241-5.1883-9.3125-7.8125-8.677-7.3665-17.4714-14.5669-26.5-21.5-6.3569 3.2342-12.0185 7.1085-17.7217 11.3611-5.2942 3.9409-10.6725 7.7457-16.0908 11.5139-6.5252 4.5428-13.0059 9.1381-19.4375 13.8125-6.1869 4.4931-12.4315 8.8851-18.7471 13.1953-7.7316 5.2813-15.3654 10.701-23.0029 16.1172-2.485-2.2791-4.0996-4.6299-5.7851-7.543-0.7897-1.3527-0.7897-1.3527-1.5953-2.7329-0.5551-0.9608-1.1102-1.9216-1.6821-2.9116-4.8918-8.4231-4.8918-8.4231-10.0508-16.6836-0.4685-0.7248-0.9369-1.4497-1.4196-2.1965-0.8758-1.3426-1.7617-2.6788-2.6587-4.0073-2.8417-4.3702-2.8417-4.3702-2.6892-6.9119 1.2148-2.7765 2.8171-3.6909 5.3418-5.3413 0.9071-0.6052 1.8143-1.2104 2.749-1.834 0.9207-0.6065 1.8414-1.213 2.79-1.8379 1.6005-1.1139 3.197-2.2336 4.7891-3.3594 11.0002-7.7147 22.0434-15.3625 33.1289-22.9541 8.0573-5.52 16.0857-11.0785 24.082-16.6865 10.1219-7.0979 20.2988-14.1119 30.5117-21.0781 8.9408-6.1012 17.8467-12.2475 26.7058-18.4666 4.5825-3.2165 9.1712-6.4234 13.7708-9.6154 1.0116-0.7022 2.0232-1.4043 3.0654-2.1277 1.9388-1.3449 3.8782-2.6889 5.8184-4.0318 1.7567-1.219 3.5035-2.4527 5.2374-3.704 2.8905-1.9764 2.8905-1.9764 5.7776-3.5138 4.586-2.6608 7.5864-4.6706 9.1206-9.8923 0.3873-4.4167 0.4126-8.7145 0.3218-13.1417 56e-4-1.7032 0.0159-3.4064 0.0307-5.1095 0.0265-4.6723-0.0155-9.3419-0.0688-14.0139-0.0455-5.0418-0.0273-10.0834-0.017-15.1253 0.0104-9.8761-0.0373-19.7511-0.1038-29.627-0.0748-11.5083-0.0881-23.0164-0.0979-34.525-0.0192-20.5444-0.0883-41.0882-0.1879-61.6324-0.0965-19.916-0.1674-39.8318-0.2051-59.748-23e-4-1.2255-46e-4-2.451-7e-3-3.7136-93e-4-4.9265-0.0184-9.853-0.0272-14.7795-0.0685-37.8137-0.1611-75.6274-0.3311-113.4408-0.0178-3.9602-0.0334-7.9204-0.0471-11.8805-0.016-4.5724-0.0366-9.1446-0.0607-13.7169-8e-3-1.6447-0.0145-3.2895-0.0192-4.9342-0.0132-4.3611-0.0529-8.7199-0.1453-13.0801-0.0288-1.4377-0.0502-2.8755-0.0654-4.3134-0.0288-2.175-0.0923-4.3465-0.1646-6.5205-0.0463-1.8872-0.0463-1.8872-0.0936-3.8126-1.1371-5.4684-4.6784-8.7324-9.195-11.932-0.5766-0.4154-1.1531-0.8308-1.7471-1.2587-0.5862-0.4174-1.1724-0.8347-1.7764-1.2647-1.1758-0.881-2.3503-1.7638-3.5234-2.6484-3.4294-2.5459-6.9319-4.9697-10.4766-7.3516-0.9139-0.6149-1.8279-1.2298-2.7695-1.8633-2.7123-1.7689-5.459-3.462-8.2305-5.1367-1.6629-1.0287-1.6629-1.0287-3.3594-2.0781-23.5731-14.179-50.6725-22.2926-77.6406-26.9219-1.2478-0.2153-2.4956-0.4305-3.7812-0.6523-56.4448-8.5542-118.2774 4.8735-165.2188 37.6523-0.7103 0.5569-1.4205 1.1138-2.1523 1.6875-1.8477 1.3125-1.8477 1.3125-3.8477 1.3125 0.1363 28.5927 0.2769 57.1854 0.4207 85.7781 0.0168 3.3392 0.0335 6.6783 0.0502 10.0175 0.2514 50.1488 0.5062 100.2966 1.0259 150.4435 0.3616 34.9305 0.6513 69.8614 0.7344 104.7938 0.0108 4.3774 0.0282 8.7546 0.0525 13.132 0.1656 31.0968-0.7222 61.7921-5.9712 92.5226-0.125 0.7508-0.25 1.5016-0.3788 2.2752-9.9711 59.468-33.592 116.2352-71.9337 163.0373-0.7103 0.9024-1.4205 1.8047-2.1523 2.7344-11.805 14.8606-25.3775 28.9864-39.8477 41.2656-1.3458 1.1795-1.3458 1.1795-2.7187 2.3828-66.5062 57.9004-153.8625 89.1344-249.1563 107.4297-0.7079 0.1294-1.4158 0.2587-2.1452 0.392-5.6465 1.0201-11.3081 1.9268-16.9798 2.7955-1.1941 0.183-2.3882 0.3659-3.6185 0.5545-18.1096 2.7458-36.2391 4.9427-54.4752 6.6564-1.4262 0.1343-1.4262 0.1343-2.8812 0.2712-8.7906 0.8242-17.5829 1.6289-26.3766 2.4193-21.6381 1.9515-43.139 4.2359-64.5977 7.6728-0.9087 0.145-1.8174 0.2899-2.7537 0.4393-29.1438 4.6934-58.2924 11.5884-84.2971 25.9865-1.6474 0.8972-1.6474 0.8972-3.3281 1.8125-5.7083 3.2127-10.8959 6.7075-15.9297 10.9024-1.7422 1.2851-1.7422 1.2851-3.7422 1.2851 0 0.66 0 1.32 0 2-1.9826 1.6873-3.9832 3.3537-6 5-0.33 0.66-0.66 1.32-1 2-0.66 0-1.32 0-2 0-0.263 0.5672-0.5259 1.1344-0.7969 1.7188-1.2933 2.4523-2.8043 4.5531-4.4531 6.7812-15.8318 22.5324-19.6336 49.8323-15.1604 76.593 3.4446 18.6328 11.4034 37.2916 25.2073 50.6453 1.2031 1.2617 1.2031 1.2617 1.2031 3.2617 1.32 0.66 2.64 1.32 4 2 0 0.66 0 1.32 0 2 0.8257 0.3693 0.8257 0.3693 1.668 0.7461 2.8039 1.5077 5.1389 3.3514 7.6445 5.3164 29.8019 22.704 69.4615 33.5908 106.6875 28.9375 0 22.11 0 44.22 0 67-7.3218 2.9288-14.2449 3.16-22.0195 3.2031-1.2722 0.0105-1.2722 0.0105-2.5701 0.0212-2.741 0.0173-5.4818 0.0237-8.2229 0.0257-1.4058 15e-4-1.4058 15e-4-2.8401 31e-4-36.4195-0.0265-72.6173-6.0526-106.3474-20.2531-0.7446-0.3113-1.4892-0.6226-2.2563-0.9433-19.2181-8.1258-37.7817-17.866-54.7437-30.0567-0.9694-0.6956-0.9694-0.6956-1.9585-1.4053-9.2334-6.6758-18.016-13.7802-26.5683-21.3051-1.3043-1.1418-2.624-2.2659-3.9458-3.3872-3.9759-3.3814-7.2577-6.8374-10.5274-10.9024-2.1465-2.203-4.3272-4.3594-6.5547-6.4805-5.2882-5.1298-9.8894-10.7398-14.4453-16.5195-0.493-0.622-0.9861-1.2439-1.4941-1.8848-40.1817-50.8835-64.8367-112.6485-71.5059-177.1152-0.0906-0.8656-0.1813-1.7312-0.2746-2.623-0.711-7.2427-1.0364-14.4804-1.2879-21.752-0.0432-1.1292-0.0863-2.2584-0.1308-3.4219-2.9359-81.4592 22.3727-169.4687 78.7363-230.0976 1.7748-1.9094 3.4626-3.8647 5.1445-5.8555 7.8972-9.0332 16.5036-17.5625 25.9466-24.9675 2.8587-2.2767 5.636-4.6301 8.4167-7.0012 6.063-5.0929 12.4172-9.6447 19.0117-14.0313 0.5718-0.3813 1.1436-0.7626 1.7327-1.1554 12.7045-8.4322 25.9624-15.4809 39.7048-22.0946 0.8329-0.4039 1.6658-0.8079 2.5239-1.2241 49.9727-23.9805 104.1835-31.0454 158.9483-31.7602 9.734-0.128 19.4668-0.3291 29.1997-0.5274 0.9482-0.0189 1.8965-0.0378 2.8735-0.0573 20.7261-0.4182 41.3619-1.4136 62.0162-3.2207 2.5144-0.2168 5.0297-0.4215 7.5454-0.6234 36.3049-2.9372 72.4414-8.1421 107.893-16.5869 0.9273-0.2141 1.8547-0.4283 2.8101-0.6489 50.8697-11.8427 99.711-32.3685 140.1313-65.8198 2.0586-1.5313 2.0586-1.5313 5.0586-2.5313 0-0.66 0-1.32 0-2 1.3985-1.375 1.3985-1.375 3.375-3 9.2509-7.9177 16.9922-16.6122 24.3198-26.2847 1.2135-1.5947 2.448-3.1733 3.6841-4.7504 5.8911-7.6123 10.9174-15.5874 15.6211-23.9649 0.436-0.7749 0.8721-1.5498 1.3213-2.3481 7.4818-13.4402 13.5157-27.169 18.6787-41.6519 0.3413-0.9473 0.6826-1.8946 1.0342-2.8706 11.7531-33.1167 17.3329-68.0019 21.0908-102.8169 0.0808-0.7234 0.1616-1.4469 0.2448-2.1923 3.6152-32.8197 3.9312-65.876 3.8748-98.8543-71e-4-5.4382-21e-4-10.8764 11e-4-16.3147 41e-4-9.4878 9e-4-18.9756-73e-4-28.4634-0.0121-14.1076-0.0126-28.2151-0.0109-42.3227 28e-4-23.742-4e-3-47.4839-0.016-71.2258-0.0119-23.4827-0.0196-46.9654-0.0217-70.4481-1e-4-0.7316-2e-4-1.4633-2e-4-2.2171-7e-4-6.6833-12e-4-13.3666-18e-4-20.05-12e-4-16.6075-31e-4-33.215-55e-4-49.8225-1e-4-0.756-2e-4-1.5119-3e-4-2.2907-53e-4-36.6932-0.0179-73.3863-0.0311-110.0794-46e-4-12.7193-91e-4-25.4387-0.0136-38.158-2e-4-0.789-5e-4-1.5779-8e-4-2.3908-0.0127-36.7368-0.0201-73.4736-0.0262-110.2104-4e-4-2.3876-8e-4-4.7752-12e-4-7.1627-27e-4-15.8237-52e-4-31.6474-77e-4-47.4711-49e-4-31.4801-0.0104-62.9603-0.0163-94.4404-3e-4-1.4988-5e-4-2.9977-8e-4-4.4966-0.0154-83.0364-0.0405-166.0728-0.0843-298.7015-1.8849 1.4065-3.7689 2.8142-5.6523 4.2227-1.0492 0.7838-2.0985 1.5676-3.1795 2.3752-7.7962 5.9111-15.1823 12.2099-22.3674 18.8474-2.1203 1.934-4.2633 3.8094-6.4414 5.6758-4.8658 4.2451-9.4241 8.7931-13.9778 13.3669-1.4418 1.4473-2.889 2.889-4.3367 4.3304-5.2265 5.222-10.2895 10.5252-15.0449 16.1816-0.5096 0.6029-1.0191 1.2058-1.5442 1.8269-11.9549 14.269-22.992 29.1325-32.4558 45.1731-0.7363 1.1874-1.4747 2.3736-2.2148 3.5586-34.4841 55.9051-52.0189 124.9704-51.9183 190.4733-33e-4 1.7143-33e-4 1.7143-68e-4 3.4633-62e-4 3.8098-55e-4 7.6196-48e-4 11.4294-26e-4 2.7672-67e-4 5.5345-0.0107 8.3018-8e-3 6.0067-0.0123 12.0134-0.0142 18.0201-3e-3 8.9332-0.0116 17.8664-0.0215 26.7995-0.0165 15.0365-0.0286 30.073-0.0387 45.1095-0.0144 21.5019-0.0372 43.0039-0.0616 64.5058-98e-4 8.6377-0.0194 17.2754-0.0289 25.9131-16e-4 1.4395-16e-4 1.4395-32e-4 2.908-0.0251 22.8323-0.0476 45.6646-0.0693 68.4969-1e-3 0.9987-19e-4 1.9973-29e-4 3.0263-0.0221 23.2841-0.043 46.5682-0.0617 69.8523-8e-4 1.0005-16e-4 2.0011-24e-4 3.0319-41e-4 5.0449-81e-4 10.0898-0.0121 15.1347-8e-4 0.997-16e-4 1.994-25e-4 3.0213-16e-4 2.0124-32e-4 4.0248-48e-4 6.0372-0.0267 33.305-0.0601 66.61-0.1008 99.915-57e-4 4.711-0.0114 9.4221-0.017 14.1332-16e-4 1.3906-16e-4 1.3906-33e-4 2.8093-0.0175 14.872-0.0277 29.744-0.0349 44.616-75e-4 14.9705-0.0219 29.9409-0.0435 44.9114-0.0125 8.8747-0.0196 17.7493-0.0187 26.624 1e-4 5.9509-72e-4 11.9017-0.0201 17.8526-71e-4 3.3757-0.0102 6.7513-64e-4 10.127 0.0216 22.3666-0.6659 44.8416-4.0261 66.991-0.1692 1.1381-0.3384 2.2762-0.5127 3.4487-6.8895 44.4517-21.5153 88.3945-45.7373 126.4888-0.4584 0.722-0.9168 1.4441-1.3891 2.188-12.1576 18.9872-25.8068 37.7605-42.1851 53.3589-1.5351 1.4156-1.5351 1.4156-2.4258 3.4531-0.66 0-1.32 0-2 0-0.33 0.99-0.66 1.98-1 3-0.66 0-1.32 0-2 0-0.2591 0.5956-0.5182 1.1911-0.7851 1.8047-1.3128 2.3722-2.5727 3.5995-4.6524 5.3203-3.3126 2.7952-6.5144 5.6722-9.6875 8.625-5.7983 5.2858-11.8968 10.1137-18.1152 14.8931-1.7141 1.3217-3.4178 2.6556-5.1192 3.9936-6.9892 5.4762-14.1638 10.5704-21.6406 15.3633-0.683 0.4407-1.3661 0.8814-2.0698 1.3355-8.7679 5.647-17.6111 11.1553-26.6177 16.4145-0.6981 0.411-1.3962 0.822-2.1155 1.2454-25.1906 14.5424-52.743 26.5345-80.197 36.0046-0.6512 0.2254-1.3024 0.4508-1.9733 0.683-44.4845 15.3801-89.5111 27.0188-136.0267 34.317-0.7193 0.113-1.4387 0.226-2.1798 0.3425-23.1976 3.62-46.4058 5.9782-69.8202 7.6575-3.2917-11.4321-6.2924-22.9282-9.1912-34.4652-0.4144-1.649-0.83-3.2977-1.2467-4.946-0.5936-2.3503-1.1821-4.7017-1.7691-7.0536-0.181-0.715-0.3621-1.43-0.5486-2.1666-0.7116-2.8733-1.2444-5.3952-1.2444-8.3686 0.6025-0.0897 1.205-0.1795 1.8257-0.272 23.7244-3.6156 45.929-9.7842 65.1743-24.728 0.9024-0.6767 1.8047-1.3535 2.7344-2.0508 6.7993-5.2873 12.0793-11.0983 17.2656-17.9492 0.6433-0.7941 1.2865-1.5881 1.9492-2.4062 11.1479-14.2911 18.5398-31.4436 24.0508-48.5938 0.2612-0.8031 0.5224-1.6062 0.7915-2.4336 14.577-45.5947 16.2965-94.8833 16.4138-142.3804 96e-4-2.5056 0.0197-5.0113 0.03-7.517 0.0213-5.3449 0.0398-10.6899 0.0556-16.0348 0.023-7.7275 0.0511-15.4549 0.0804-23.1823 0.0474-12.544 0.0907-25.088 0.1314-37.6321 0.0395-12.1692 0.081-24.3385 0.125-36.5078 27e-4-0.7529 55e-4-1.5058 83e-4-2.2815 0.0136-3.778 0.0274-7.556 0.0411-11.334 0.1135-31.2322 0.2204-62.4643 0.3229-93.6965-14.0582 0.0611-28.1163 0.1391-42.1743 0.2357-6.5303 0.0444-13.0605 0.0838-19.5908 0.1107-6.322 0.0264-12.6438 0.067-18.9656 0.1168-2.3917 0.0165-4.7833 0.0281-7.175 0.0344-34.2741 0.0996-67.1968 5.074-98.0943 20.5024-0.9088 0.4486-1.8176 0.8972-2.7539 1.3594-11.6529 6.0385-24.1553 14.2008-32.2461 24.6406-0.7773 0.7683-1.5546 1.5366-2.3555 2.3281-21.328 21.5486-29.7734 52.2328-29.8366 81.8465 0.0686 6.3064 0.6786 12.5088 1.4804 18.761 0.5271 4.1112 0.7117 7.8836 0.7117 12.0644-17.82 0-35.64 0-54 0-6.1075-10.9935-11.852-21.4002-16.5625-32.9375-0.4059-0.9832-0.4059-0.9832-0.8201-1.9863-17.4649-42.3821-26.831-86.3702-26.8674-132.2637-7e-4-0.7781-13e-4-1.5561-2e-3-2.3578 0.0962-70.6803 25.3522-139.0977 73.3067-191.2633 1.9721-2.1441 1.9721-2.1441 3.5781-4.4765 0.6768-0.8489 0.6768-0.8489 1.3672-1.7149 0.66 0 1.32 0 2 0 0.3577-0.8624 0.3577-0.8624 0.7227-1.7422 1.5462-2.7331 3.343-4.3259 5.7148-6.3828 3.678-3.2196 7.2975-6.4815 10.875-9.8125 5.95-5.4008 12.2172-10.3097 18.6875-15.0625 0.6421-0.4719 1.2842-0.9439 1.9458-1.4302 10.6657-7.7879 21.6519-14.9098 33.0542-21.5698 0.728-0.4252 1.456-0.8504 2.2061-1.2886 28.839-16.706 59.9694-28.9615 91.7939-38.7114 1.5851-0.4863 1.5851-0.4863 3.2022-0.9824 32.9314-9.9346 72.1568-20.8694 106.7978-20.0176 0.0142-0.9049 0.0284-1.8098 0.043-2.7422 1.6662-56.1683 18.3036-115.8958 41.7168-166.5674 1.1047-2.3965 2.1851-4.8019 3.2558-7.2138 10.8801-24.2064 25.2009-47.1744 40.9844-68.4766 0.4797-0.651 0.9594-1.3019 1.4536-1.9726 6.2942-8.5298 12.7108-16.9208 19.5464-25.0274 0.4481-0.533 0.8962-1.066 1.3579-1.6152 1.4803-1.7573 2.9663-3.5094 4.4546-5.2598 0.437-0.5164 0.874-1.0328 1.3242-1.5649 9.8031-11.4473 20.3337-22.1931 31.001-32.8282 2.1272-2.1217 4.2489-4.2488 6.3701-6.3764 1.3773-1.3766 2.7549-2.753 4.1328-4.1289 0.6211-0.6231 1.2421-1.2461 1.8819-1.8881 3.786-3.7661 7.6904-7.3449 11.7341-10.8332 2.223-1.9194 4.3883-3.8987 6.5559-5.8803 4.2384-3.821 8.5863-7.4675 13.0235-11.0547 2.3769-1.9221 4.7308-3.8699 7.0781-5.8281 8.8467-7.3685 17.847-14.4433 27.1108-21.2788 2.6356-1.9527 5.252-3.9303 7.8694-5.9072 16.0753-12.1224 32.4897-23.6 49.2932-34.6929 2.5081-1.6616 5.0068-3.3358 7.5-5.0195 9.3729-6.3235 18.8927-12.3775 28.4956-18.3457 5.8483-3.636 11.6703-7.3042 17.4419-11.0606 13.9838-9.1004 28.0938-18.0044 42.2041-26.907 13.9885-8.8292 27.9299-17.732 41.8584-26.6555 8.0788-5.1754 16.1718-10.3268 24.2886-15.4424 5.9551-3.7541 11.8982-7.5268 17.8364-11.3076 0.9172-0.5839 1.8344-1.1679 2.7793-1.7695 2.8029-1.7849 5.6056-3.5701 8.4082-5.3555 10.4901-6.6824 20.9804-13.3641 31.5-20 13.9659-8.8103 27.8987-17.6722 41.7813-26.6133 7.5942-4.8817 15.2212-9.7125 22.8398-14.5561 4.6272-2.9422 9.253-5.8865 13.8789-8.8306 1.8333-1.1667 3.6667-2.3333 5.5-3.5 0.9075-0.5775 1.815-1.155 2.75-1.75 8.25-5.25 8.25-5.25 10.9993-6.9995 1.8358-1.1683 3.6716-2.3365 5.5073-3.5049 4.5454-2.8927 9.0912-5.7848 13.6379-8.6753 9.775-6.2153 19.5397-12.4461 29.293-18.6953 8.0053-5.1288 16.0262-10.2309 24.0711-15.2974 6.6004-4.1615 13.1722-8.367 19.7414-12.5776 8.1385-5.216 16.2905-10.4091 24.4688-15.5625 6.9615-4.388 13.9032-8.8067 20.8427-13.2292 5.0977-3.2471 10.2039-6.4798 15.3208-9.6963 7.8004-4.9048 15.5372-9.8969 23.2427-14.9495 8.1873-5.3651 16.4445-10.5942 24.783-15.7207 9.0936-5.595 18.0918-11.3363 27.0891-17.0845 3.6162-2.3084 7.237-4.6097 10.8577-6.9111 6.9294-4.4047 13.8541-8.8167 20.7663-13.2485 0.8622-0.5526 0.8622-0.5526 1.7418-1.1164 2.8145-1.8041 5.6284-3.6094 8.4411-5.4163 1.5124-0.97 1.5124-0.97 3.0554-1.9595 0.8969-0.576 1.7937-1.152 2.7178-1.7454C-2.5177-0.6942-2.5177-0.6942 0 0zM623.7617 289.3828c-0.3253 55.2211-0.6277 110.4423-0.8045 165.6641-26e-4 0.8174-52e-4 1.6348-79e-4 2.477-0.0569 17.7647-0.1095 35.5293-0.1578 53.294-0.0237 8.7119-0.0484 17.4238-0.0735 26.1357-25e-4 0.8669-5e-3 1.7339-75e-4 2.6271-0.081 28.0961-0.2237 56.1914-0.3984 84.287-0.1793 28.8739-0.2962 57.7474-0.3348 86.6218-54e-4 4.079-0.0116 8.158-0.0182 12.237-13e-4 0.8028-26e-4 1.6056-39e-4 2.4328-0.0225 12.9191-0.1106 25.8371-0.2233 38.7557-0.1119 12.9904-0.1546 25.9796-0.1267 38.9704 0.0144 7.7178-0.024 15.431-0.1386 23.1479-0.0798 5.7663-0.0601 11.5289-2e-3 17.2953 81e-4 2.3301-0.016 4.6605-0.0757 6.9899-0.6167 11.8369-0.6167 11.8369 4.2134 22.1425 4.5031 3.7344 9.4505 6.371 14.7505 8.7971 3.0346 1.4169 5.9034 3.0596 8.7943 4.7462 10.5976 6.0585 22.1685 10.2394 33.6146 14.3785 1.0881 0.3945 1.0881 0.3945 2.1983 0.7969 8.4494 2.9983 17.0457 5.0259 25.8017 6.8906 0.9487 0.2027 1.8974 0.4054 2.8748 0.6143 14.3814 2.9258 28.4277 4.0802 43.0627 4.0107 1.2042-27e-4 1.2042-27e-4 2.4326-55e-4 48.4151-0.184 97.6645-14.4626 136.2692-44.5142 1.7413-1.3224 3.5296-2.5836 5.3406-3.8088 6.3031-4.5065 6.3031-4.5065 10.1413-11.0838 0.4301-3.6157 0.4893-7.068 0.4161-10.7086 0.0153-1.3786 0.0358-2.7571 0.061-4.1355 0.0537-3.7654 0.0332-7.5273-3e-4-11.2929-0.0231-4.0692 0.023-8.1377 0.0599-12.2067 0.061-7.9624 0.057-15.9234 0.0291-23.886-0.0216-6.4733-0.0205-12.9463-33e-4-19.4197 24e-4-0.9225 48e-4-1.8449 73e-4-2.7953 5e-3-1.8741 0.01-3.7482 0.0151-5.6224 0.0445-17.5617 0.014-35.1227-0.0412-52.6844-0.0454-15.0565-0.0221-30.1116 0.0505-45.168 0.0842-17.4987 0.1224-34.9965 0.0899-52.4954-33e-4-1.8674-66e-4-3.7348-97e-4-5.6022-16e-4-0.9187-32e-4-1.8375-48e-4-2.784-78e-4-6.4624 0.0176-12.9241 0.0562-19.3863 0.0464-7.8807 0.0429-15.7595-0.0238-23.6401-0.0327-4.0187-0.0434-8.0341 72e-4-12.0526 1.0828-16.6299 1.0828-16.6299-4.8372-31.2202-2.8143-2.4992-5.7962-4.2337-9.1856-5.8371-3.1501-1.6778-5.6727-4.0838-8.3076-6.4628-4.3871-3.7707-8.8665-7.3924-13.4375-10.9375-5.5045-4.2725-10.8192-8.7258-16.0869-13.2861-4.1086-3.5519-8.2933-6.9852-12.5537-10.3545-4.5185-3.5857-8.9626-7.2631-13.4219-10.9219-1.8331-1.5003-3.6664-3.0003-5.5-4.5-3.6666-3-7.3333-6-11-9-1.3709-1.1215-1.3709-1.1215-2.7695-2.2656-1.7687-1.4474-3.537-2.8952-5.3047-4.3438-5.4648-4.4764-10.9418-8.9377-16.4258-13.3906-6.3452-5.1522-12.6778-10.3195-19-15.5-1.8332-1.5001-3.6665-3.0001-5.5-4.5-14.6666-12-29.3333-24-44-36-0.9139-0.7476-1.8279-1.4953-2.7695-2.2656-1.7687-1.4474-3.537-2.8952-5.3047-4.3438-5.4648-4.4764-10.9418-8.9377-16.4258-13.3906-6.3452-5.1522-12.6778-10.3195-19-15.5-1.8332-1.5001-3.6665-3.0001-5.5-4.5-0.9152-0.7489-1.8304-1.4979-2.7734-2.2695-1.7548-1.4355-3.5099-2.8704-5.2656-4.3047-4.1557-3.3961-8.3074-6.7963-12.4414-10.2188-10.189-8.429-20.4273-16.7865-31.0196-24.707zM537.0547 310.6289c-0.8004 0.4992-1.6007 0.9984-2.4253 1.5127-0.8845 0.554-1.7689 1.108-2.6802 1.6787-8.8207 5.4935-17.6775 10.9239-26.5625 16.3125-0.6077 0.3687-1.2155 0.7375-1.8416 1.1174-6.4581 3.9174-12.9229 7.8231-19.4084 11.6951-7.4142 4.433-14.7608 8.9752-22.1133 13.5096-6.2338 3.8439-12.4715 7.6769-18.7617 11.4279-6.7705 4.0376-13.4787 8.1733-20.1875 12.3125-8.7583 5.4029-17.5385 10.7641-26.3796 16.0305-1.441 0.8593-2.8708 1.7377-4.287 2.6371-2.6459 1.5199-2.6459 1.5199-5.8935 2.8187-6.5345 2.9561-6.5345 2.9561-10.5089 8.6474-1.2793 6.1798-0.9894 12.5094-0.8962 18.7863-0.0154 2.1659-0.0364 4.3318-0.0627 6.4976-0.0558 5.9773-0.0302 11.9519 81e-4 17.9292 0.0247 5.8235-0.0118 11.6463-0.0465 17.4697-0.0697 12.0571-0.0774 24.1136-0.0516 36.1709 0.026 12.22 0.0239 24.4395-0.0126 36.6595-22e-4 0.7716-45e-4 1.5432-69e-4 2.3382-94e-4 3.1427-0.0189 6.2853-0.0287 9.428-0.0997 31.9123-0.1151 63.8243-0.0972 95.7367 24e-4 4.4107 48e-4 8.8213 7e-3 13.232 7e-4 1.3141 7e-4 1.3141 13e-4 2.6547 94e-4 19.409-67e-4 38.8179-0.0278 58.2269-39e-4 3.5429-76e-4 7.0859-0.0114 10.6289-28e-4 2.6662-56e-4 5.3325-85e-4 7.9988-9e-4 0.8814-18e-4 1.7629-28e-4 2.6711-19e-4 1.7829-38e-4 3.5659-57e-4 5.3488-0.0544 50.599-0.0828 101.198-0.0534 151.7971 5e-4 0.9371 11e-4 1.8743 16e-4 2.8398 6e-3 10.4505 0.0124 20.901 0.019 31.3515 8e-4 1.4153 8e-4 1.4153 17e-4 2.8592 36e-4 5.7236 36e-4 5.7236 72e-4 11.4472 0.0381 60.3483-74e-4 120.696-0.1248 181.0442-0.0296 15.2044-0.0589 30.4089-0.0866 45.6133-17e-4 0.9362-35e-4 1.8724-52e-4 2.8369-0.0524 28.8524-0.0814 57.7046-0.0859 86.557-2e-4 1.3587-2e-4 1.3587-5e-4 2.7448-29e-4 19.8843 0 39.7685 81e-4 59.6527 29e-4 7.1149 54e-4 14.2298 78e-4 21.3447 6e-4 1.77 12e-4 3.54 18e-4 5.3101 0.01 28.2076-0.0342 56.4148-0.1049 84.6224-0.0726 29.2002-0.075 58.3996 26e-4 87.5998 81e-4 3.136 0.0158 6.272 0.0234 9.408 18e-4 0.7697 37e-4 1.5393 56e-4 2.3322 0.028 12.1846-78e-4 24.3681-0.0701 36.5525-0.0598 11.9827-0.0518 23.9638 0.0283 35.9464 0.0401 6.4104 0.05 12.8169-0.0236 19.227-0.0663 5.8342-0.045 11.6613 0.0458 17.4951 0.0174 2.0953 3e-3 4.1912-0.0472 6.286-0.3932 11.0006-0.3932 11.0006 4.2822 20.5675 4.5014 4.0911 9.4755 7.2607 14.7069 10.3305 4.0027 2.459 7.6478 5.3574 11.3339 8.2606 1.4013 1.0783 2.8035 2.1553 4.207 3.2305 2.436 1.8762 4.8705 3.7543 7.3047 5.6328 8.4794 6.5414 17.0365 12.9738 25.6133 19.3867 11.628 8.6961 23.2195 17.435 34.7427 26.2695 11.6834 8.9565 23.3887 17.8688 35.2729 26.5577 6.4735 4.7514 12.8167 9.6593 19.1121 14.644 0.6978 0.5496 1.3956 1.0993 2.1145 1.6655 0.607 0.4817 1.214 0.9634 1.8394 1.4597 2.2062 1.6142 4.5743 2.9972 6.9184 4.4036 0-492.03 0-984.06 0-1491-1.8021 0-3.2178 1.3127-4.707 2.2461zM-282.2383 309.3828c-0.291 53.3285-0.5617 106.6572-0.7198 159.9863-24e-4 0.7893-47e-4 1.5787-71e-4 2.3919-0.0509 17.1548-0.098 34.3096-0.1412 51.4643-0.0212 8.4128-0.0432 16.8256-0.0657 25.2383-22e-4 0.8372-45e-4 1.6744-68e-4 2.5369-0.0724 27.1329-0.2001 54.2653-0.3564 81.3979-0.1604 27.8834-0.265 55.7664-0.2995 83.6503-49e-4 3.9388-0.0105 7.8776-0.0164 11.8164-11e-4 0.7752-23e-4 1.5504-35e-4 2.3491-0.0201 12.4766-0.0989 24.9523-0.1997 37.4285-0.1002 12.5445-0.1383 25.088-0.1134 37.6329 0.0118 6.7973-6e-3 13.5915-0.097 20.3883-0.0827 6.224-0.0869 12.4428-0.0288 18.667 72e-4 2.2506-0.0144 4.5015-0.0677 6.7515-0.6096 11.2948-0.6096 11.2948 3.7669 21.2505 3.996 3.4449 8.4094 5.849 13.1859 8.04 3.3559 1.5617 6.5178 3.4274 9.7327 5.2599 34.0318 17.7742 71.6124 27.2512 110 27.0625 0.7789-18e-4 1.5578-36e-4 2.3602-55e-4 13.5336-0.053 26.7354-0.9082 40.0773-3.307 0.9402-0.1663 1.8804-0.3326 2.8491-0.5039 40.7516-7.4583 77.2566-25.3644 109.1509-51.4961 1.2802-0.773 1.2802-0.773 2.5862-1.5616 3.4034-3.438 3.19-6.6488 3.2182-11.2411 0.0241-0.9166 0.0482-1.8332 0.073-2.7776 0.071-3.1402 0.1001-6.2788 0.1226-9.4197 0.0126-1.1216 0.0251-2.2432 0.0381-3.3987 0.0905-8.5127 0.1002-17.0248 0.0926-25.5378-23e-4-3.8321 13e-4-7.6643 4e-3-11.4964 44e-4-7.4739 35e-4-14.9477 6e-4-22.4216-23e-4-6.0749-25e-4-12.1499-15e-4-18.2248 2e-4-0.8688 3e-4-1.7376 5e-4-2.6327 3e-4-1.7655 6e-4-3.531 1e-3-5.2965 28e-4-16.4918-4e-4-32.9836-58e-4-49.4754-45e-4-14.1361-37e-4-28.2721 9e-4-42.4082 53e-4-16.4566 74e-4-32.9132 44e-4-49.3698-3e-4-1.7548-7e-4-3.5097-1e-3-5.2646-1e-4-0.8632-3e-4-1.7264-4e-4-2.6158-9e-4-6.0704 6e-4-12.1409 29e-4-18.2113 28e-4-7.3927 21e-4-14.7854-33e-4-22.1781-26e-4-3.7683-36e-4-7.5365-3e-4-11.3048 35e-4-4.088-7e-4-8.1759-57e-4-12.2639 33e-4-1.7777 33e-4-1.7777 68e-4-3.5912 0.6144-11.0555 0.6144-11.0555-3.2422-20.6736-1.3617-0.8556-1.3617-0.8556-2.751-1.7285-0.9996-0.6523-1.9993-1.3046-3.0293-1.9766-1.0267-0.6368-2.0534-1.2736-3.1113-1.9297-1.8414-1.2353-3.68-2.4749-5.5156-3.7187-1.9104-1.2621-3.8219-2.5225-5.7344-3.7813-9.4053-6.2269-18.6998-12.5952-27.9441-19.0583-5.4834-3.832-10.9907-7.6065-16.5754-11.2893-4.5203-3.0117-8.9975-6.0855-13.4805-9.1524-7.8567-5.3727-15.7553-10.6769-23.6875-15.9375-9.0147-5.9825-17.9351-12.0871-26.7868-18.3083-5.7694-4.0469-11.599-7.9908-17.4685-11.8899-6.8605-4.5581-13.6787-9.1776-20.4947-13.8018-1.35-0.9152-2.7-1.8304-4.05-2.7456-4.0881-2.7715-8.1753-5.5441-12.2625-8.3169-1.233-0.8364-2.4661-1.6728-3.6992-2.5093-6.3767-4.3255-12.7526-8.6522-19.128-12.9797-5.2225-3.5448-10.4454-7.089-15.6684-10.6331-2.3285-1.58-4.6569-3.16-6.9853-4.7402-5.3327-3.6189-10.6656-7.2373-15.9997-10.8539-2.43-1.6476-4.8598-3.2955-7.2896-4.9435-1.7712-1.201-3.5427-2.4015-5.3143-3.602-5.241-3.5534-10.4747-7.1165-15.685-10.7148-0.8713-0.6009-1.7427-1.2018-2.6404-1.8209-1.58-1.0913-3.1578-2.1857-4.7329-3.2841-0.6928-0.4784-1.3856-0.9568-2.0994-1.4497-0.5863-0.408-1.1727-0.816-1.7768-1.2364-2.571-1.5995-5.2684-2.8904-7.981-4.2324zM6.8867 939.0703c-12.7736 11.5727-27.8768 20.4197-43.125 28.3125-0.6608 0.3487-1.3216 0.6974-2.0024 1.0567-44.4205 23.2144-98.8873 29.548-147.9976 20.9433-0.9126-0.1556-1.8253-0.3113-2.7656-0.4717-22.221-3.931-45.237-10.9846-65.2344-21.5283-1.5974-0.826-3.1951-1.6515-4.7929-2.4766-7.8048-4.0558-15.5168-8.251-23.2071-12.5234 0 81.18 0 162.36 0 246 4.413-2.5217 8.7108-5.0469 13-7.75 53.0387-32.8195 118.067-43.1952 178.7691-29.0522 38.7474 9.6209 70.6434 27.3327 101.2309 52.8022 2.1215-3.1822 2.2499-3.9459 2.2489-7.5875 46e-4-0.9469 92e-4-1.8938 0.0139-2.8693-51e-4-1.0423-0.0102-2.0846-0.0155-3.1585 36e-4-1.6585 36e-4-1.6585 73e-4-3.3506 56e-4-3.7241-31e-4-7.4481-0.0117-11.1723 11e-4-2.6622 3e-3-5.3245 58e-4-7.9867 5e-3-6.4924-6e-4-12.9848-99e-4-19.4772-0.0103-7.5583-0.0103-15.1166-98e-4-22.6749 5e-4-13.4861-87e-4-26.9722-0.0232-40.4583-0.0141-13.0896-0.0211-26.1791-0.0205-39.2686 1e-4-1.2088 1e-4-1.2088 1e-4-2.442 1e-4-1.2067 1e-4-1.2067 2e-4-2.4378 7e-4-14.8941-52e-4-29.7883-0.0142-44.6825-3e-3-5.2696-41e-4-10.5392-45e-4-15.8087-7e-4-6.4227-52e-4-12.8454-0.0144-19.2681-46e-4-3.2776-71e-4-6.5551-64e-4-9.8326 5e-4-3.5517-51e-4-7.1034-0.0124-10.6551 16e-4-1.0378 31e-4-2.0757 47e-4-3.145-32e-4-0.9521-64e-4-1.9042-97e-4-2.8851-11e-4-1.2296-11e-4-1.2296-22e-4-2.484-0.1358-2.5295-0.5737-4.886-1.1265-7.3552-1.9454 0-3.58 2.4396-4.875 3.6875zM902.0117 946.3828c-6.8625 5.0966-13.8911 9.644-21.25 14-0.7441 0.4596-1.4882 0.9191-2.2549 1.3926-51.76 31.7559-118.3318 38.6432-176.7485 24.9009-26.8247-6.5906-52.4873-17.4759-75.2839-33.1831-1.5123-1.2011-1.5123-1.2011-2.7127-1.1104 0 81.18 0 162.36 0 246 4.471-2.2355 8.6939-4.5815 12.9375-7.1875 13.8908-8.3851 27.8483-15.1224 43.0625-20.8125 1.2195-0.4628 2.4389-0.9255 3.6953-1.4023 45.9747-16.3896 96.5783-16.7114 143.3047-3.5977 0.9003 0.2523 1.8005 0.5047 2.728 0.7647 26.2026 7.5671 50.7662 20.7084 72.2371 37.4404 2.6661 2.0748 4.803 3.7176 8.0349 4.7949 0-88.11 0-176.22 0-267-2.5257 0-5.6946 3.4552-7.75 5z" />
  <path fill="currentColor" transform="translate(785 542)" d="M0 0c1.0815 0.2968 2.163 0.5936 3.2773 0.8994 35.7951 9.9943 70.847 23.1222 105.5665 36.3194C140.3656 49.0665 172.8687 58.0527 206 64c1.7071 0.325 3.4142 0.6505 5.1211 0.9766 48.4011 8.8208 100.7369 9.2729 142.7226-19.6211 4.6969-3.5053 9.2331-7.2019 13.7266-10.9637 0.9707-0.8088 0.9707-0.8088 1.9609-1.634 0.573-0.4832 1.146-0.9665 1.7364-1.4643 1.8257-1.3632 3.6692-2.3359 5.7324-3.2935 0-0.66 0-1.32 0-2 1.293-1.2695 1.293-1.2695 3.1875-2.8125 8.2455-7.0131 15.973-14.8171 22.9805-23.0664 2.5299-2.9291 5.1497-5.7724 7.7695-8.6211 0.4977-0.5415 0.9955-1.083 1.5083-1.6409 1.184-1.287 2.369-2.5732 3.5542-3.8591 10.8361 4.9645 21.4167 10.2117 31.8223 16.0278C454.7783 5.9099 461.833 9.5233 469 13c0 4.3166-0.0418 4.5414-2.8164 7.3906-0.5956 0.6226-1.1911 1.2453-1.8047 1.8867-0.6407 0.651-1.2813 1.302-1.9414 1.9727-1.3042 1.3586-2.6076 2.7179-3.9102 4.0781-0.5904 0.6075-1.1809 1.215-1.7893 1.8408-1.8027 1.8993-3.5247 3.851-5.238 5.8311-2.2831 2.6295-4.6046 5.2071-6.9922 7.7422-0.6361 0.678-1.2723 1.3561-1.9277 2.0547-1.2882 1.3692-2.5785 2.7365-3.8711 4.1015-0.5923 0.6291-1.1847 1.2582-1.7949 1.9063-0.8051 0.8505-0.8051 0.8505-1.6265 1.7182C433.9012 54.9888 433.9012 54.9888 433 57c-0.66 0-1.32 0-2 0-0.2436 0.5723-0.4873 1.1447-0.7383 1.7344-1.4869 2.6699-3.2425 4.4039-5.4492 6.5156-2.7944 2.7281-5.4832 5.452-8 8.4375-3.9873 4.6628-8.371 8.9235-12.7507 13.2136-2.7822 2.742-5.4236 5.4773-7.8665 8.5286C395.4709 96.2779 394.7464 97.1261 394 98c-0.66 0-1.32 0-2 0 0 0.66 0 1.32 0 2-0.66 0-1.32 0-2 0-0.2688 0.5933-0.5375 1.1866-0.8145 1.7979-1.1884 2.2075-2.3929 3.6675-4.1542 5.4365-0.5711 0.5736-1.1422 1.1472-1.7305 1.7383-0.8914 0.8797-0.8914 0.8797-1.8008 1.7773-0.8914 0.903-0.8914 0.903-1.8008 1.8242-0.571 0.5685-1.1421 1.137-1.7305 1.7227-0.5214 0.5191-1.0428 1.0383-1.58 1.5732C375 117 375 117 373 117c-0.2475 0.5775-0.495 1.155-0.75 1.75-1.433 2.5794-3.0342 4.3112-5.25 6.25-0.66 0-1.32 0-2 0-0.2617 0.5994-0.5234 1.1988-0.793 1.8164-1.2892 2.3323-2.4585 3.4573-4.5195 5.1211-3.9455 3.3274-7.5671 6.8916-11.1875 10.5625-3.995 4.0364-8.0131 7.9497-12.3437 11.6289-2.9474 2.5576-5.7969 5.216-8.6563 7.8711-4.7661 4.4149-9.5609 8.7782-14.5 13-1.3922 1.193-1.3922 1.193-2.8125 2.4102-6.0829 5.1906-12.2341 10.2937-18.4375 15.3398-0.6368 0.5184-1.2736 1.0367-1.9297 1.5708C268.898 211.2771 247.0236 227.0238 224 241c-0.9987 0.6086-0.9987 0.6086-2.0176 1.2295C143.697 289.7357 52.9688 305.8019-37 288.75c-0.7021-0.1322-1.4042-0.2644-2.1275-0.4007-20.2432-3.8656-40.0846-9.4293-59.81-15.3454-0.7329-0.2197-1.4658-0.4395-2.2209-0.6659-6.7869-2.0371-13.5709-4.0838-20.3499-6.1468-16.7033-5.0779-33.4013-9.8439-50.4331-13.7029-0.7213-0.1634-1.4425-0.3269-2.1856-0.4953-12.5472-2.8227-25.1322-5.2325-37.873-6.993-0.7966-0.1157-1.5933-0.2314-2.4141-0.3506C-251.7916 239.3834-292.1056 242.1963-327 257c-0.8374 0.3516-1.6748 0.7032-2.5376 1.0654-18.8137 8.0414-35.5087 19.0835-50.0317 33.5186-1.4182 1.4036-2.8658 2.7772-4.3135 4.1504-18.053 17.3992-31.8819 39.5652-40.8601 62.896-2.0558 5.2689-2.0558 5.2689-4.2571 6.3696-2.4781-1.0843-4.829-2.2315-7.2188-3.4883-0.7264-0.3744-1.4528-0.7488-2.2012-1.1346-2.3643-1.2218-4.7222-2.4553-7.08-3.6896-1.6044-0.8329-3.2089-1.6654-4.8137-2.4976C-460.9791 348.6452-471.5752 342.9871-482 337c1.8976-8.0716 4.1458-15.9212 6.875-23.75 0.3851-1.1049 0.7702-2.2098 1.167-3.3481C-456.7986 261.4807-434.3706 214.2238-405 172c0.47-0.6797 0.94-1.3593 1.4243-2.0596 14.1129-20.3685 29.1319-41.1425 47.021-58.3896 1.679-1.6748 3.2051-3.4327 4.7422-5.2383 6.7056-7.7628 14.0986-15.0421 21.9102-21.6875 2.049-1.7503 4.0343-3.5612 6.0273-5.375 4.979-4.4372 10.2185-8.5144 15.4844-12.6016 2.7358-2.125 5.4107-4.313 8.0781-6.5234C-251.2793 20.834-187.7664-7.4256-125-13c1.63-0.1644 1.63-0.1644 3.293-0.332C-81.0788-16.9043-39.1788-10.7557 0 0z" />
</svg>
