<svg viewBox="0 0 2388 349" fill="var(--color0, #fff)" width="218.95702" height="32" version="1.1" xmlns="http://www.w3.org/2000/svg" xmlns:xlink="http://www.w3.org/1999/xlink">
    <style>
        :root, .palette0 {color: currentColor;
            --color0: #fff;
        }
    </style>
    <path transform="translate(181 33)" d="M0 0c2.7813 1.793 2.7813 1.793 5.5 4.1875 0.9513 0.8237 1.9027 1.6474 2.8828 2.4961C9.6783 7.8302 9.6783 7.8302 11 9c1.1209 0.9216 2.245 1.8395 3.375 2.75C17 14 17 14 19.5625 16.625c2.3305 2.458 2.3305 2.458 5.1875 4C27 22 27 22 28 25c1.2066 0.4641 1.2066 0.4641 2.4375 0.9375C33.5269 27.2185 33.6055 28.1181 35 31c1.9018 0.6006 1.9018 0.6006 4 1 2.25 1.4375 2.25 1.4375 4 3 0 0.66 0 1.32 0 2 3.1225 0.9719 4.5184 1.2241 7.5352-0.1797 0.834-0.5594 1.668-1.1189 2.5273-1.6953C56.0953 33.1156 58.4595 31.7841 62 31c0.0376-1.219 0.0376-1.219 0.0759-2.4626 0.1156-3.6585 0.2385-7.3167 0.3616-10.9749 0.0393-1.2794 0.0786-2.5588 0.1191-3.877 0.0419-1.2149 0.0838-2.4298 0.127-3.6816 0.055-1.6889 0.055-1.6889 0.1111-3.4119C63 4 63 4 64 3c4.3353-0.1439 8.6616-0.0421 13 0 0 5.61 0 11.22 0 17 1.98-0.66 3.96-1.32 6-2 0-0.66 0-1.32 0-2 6.625-4 6.625-4 10-4 0-0.66 0-1.32 0-2 0.9758-0.5543 1.9516-1.1086 2.957-1.6797 1.2852-0.7317 2.5704-1.4635 3.8555-2.1953 0.6426-0.3648 1.2852-0.7296 1.9473-1.1055C104.5677 3.4192 107.3096 1.7936 110 0c3.6984-0.4824 5.4181-0.3832 8.5625 1.6875C121.087 4.0826 123.5394 6.5394 126 9c2.0387 1.8104 4.099 3.5941 6.1602 5.3789 2.035 1.7931 3.9222 3.7035 5.8398 5.6211 2.6444 2.3587 5.3251 4.6759 8 7 1.649 1.4338 3.2949 2.8713 4.9375 4.3125 1.1273 0.9842 1.1273 0.9842 2.2773 1.9883C155 35 155 35 156 37c4.166-0.5534 6.9392-3.0317 10.125-5.5625C171.7409 27 171.7409 27 174 27c0.0825 0.6187 0.165 1.2375 0.25 1.875 0.5626 2.3094 0.5626 2.3094 2.8125 3.375 0.6394 0.2475 1.2788 0.495 1.9375 0.75 0.3203 2.7461 0.3203 2.7461 0 6-2.1953 2.1602-2.1953 2.1602-5.125 4.0625-1.9652 1.3022-3.9233 2.6151-5.875 3.9375-1.0377 0.5484-2.0753 1.0968-3.1444 1.6618-2.4014 2.0543-2.8347 3.2207-3.3974 6.3796-0.2008 4.1444-0.2006 8.2503-0.1394 12.3973 17e-4 1.5968 8e-4 3.1936-26e-4 4.7903-17e-4 4.3306 0.0335 8.6602 0.0754 12.9905 0.0375 4.527 0.0411 9.054 0.0482 13.5811 0.0186 8.5707 0.0679 17.141 0.1281 25.7115 0.0671 9.758 0.1 19.5161 0.1302 29.2743 0.0627 20.0714 0.1682 40.1425 0.3019 60.2136 0.5981 0.2887 1.1962 0.5775 1.8125 0.875C166 216 166 216 169 218c0 0.66 0 1.32 0 2 0.5981 0.2887 1.1962 0.5775 1.8125 0.875C173 222 173 222 176 224c0.8179-0.5453 0.8179-0.5453 1.6523-1.1016 1.5854-1.0569 3.1742-2.1086 4.7657-3.1562 1.6956-1.1441 3.3666-2.3259 5.0078-3.5469 0.767-0.5594 1.534-1.1189 2.3242-1.6953 0.6961-0.5259 1.3922-1.0519 2.1094-1.5937C194 212 194 212 196.6523 212.7539c2.2967 1.219 3.7779 2.1805 5.3477 4.2461 0 0.99 0 1.98 0 3-0.66 0-1.32 0-2 0-0.33 0.99-0.66 1.98-1 3-1.6094 1.4375-1.6094 1.4375-3.75 3-4.0165 3.0204-7.87 6.1732-11.6875 9.4375-5.4339 4.632-10.9339 9.1674-16.5625 13.5625-0.7103 0.5672-1.4205 1.1344-2.1523 1.7187C163 252 163 252 161 252c-0.33 0.99-0.66 1.98-1 3-3.4444 3-3.4444 3-6 3 0 0.66 0 1.32 0 2-2.6875 2.25-2.6875 2.25-6 4-4.5036-0.5926-7.561-4.1066-10.8125-7.0625-2.9168-2.5835-5.9989-4.9177-9.1094-7.2617-2.1873-1.7639-4.0938-3.6877-6.0781-5.6758-1.794-1.5427-3.6077-3.0626-5.4375-4.5625-0.9268-0.7644-1.8537-1.5288-2.8086-2.3164-2.5019-1.927-5.0112-3.5631-7.7539-5.1211-0.6149 0.4215-1.2298 0.843-1.8633 1.2773-1.2123 0.8218-1.2123 0.8218-2.4492 1.6602-0.8005 0.5453-1.601 1.0905-2.4258 1.6523C97 238 97 238 94 239c-1.32-1.98-2.64-3.96-4-6 1.3387-3.14 2.5738-4.7067 5.4414-6.543 0.9987-0.6506 0.9987-0.6506 2.0176-1.3144 0.6941-0.4389 1.3883-0.8779 2.1035-1.3301 4.4438-2.6307 4.4438-2.6307 8.4375-5.8125 0.0937-1.7493 0.1174-3.5024 0.1135-5.2542-1e-4-1.6816-1e-4-1.6816-2e-4-3.3972-52e-4-1.2198-0.0103-2.4395-0.0156-3.6963-15e-4-1.2415-29e-4-2.4831-43e-4-3.7623-47e-4-3.3061-0.0137-6.6121-0.0247-9.9181-0.0103-3.3715-0.0148-6.743-0.0199-10.1145-0.011-6.6191-0.0278-13.2383-0.0488-19.8574-1.4315-0.6602-2.8656-1.3147-4.3008-1.9668-1.1975-0.5476-1.1975-0.5476-2.4192-1.1063-2.8399-1.1545-5.2206-1.4609-8.28-1.4269-0.9281-0.0103-1.8562-0.0206-2.8125-0.0312C85.873 158.0511 85.873 158.0511 78 162c-0.33 18.15-0.66 36.3-1 55 2.64-1.65 5.28-3.3 8-5 3.3889 0.663 4.5769 1.5769 7 4 0.4766 2.332 0.4766 2.332 0 5-1.8565 1.8349-3.5127 3.2079-5.625 4.6875-0.5839 0.4286-1.1679 0.8572-1.7695 1.2988C82.7491 228.342 80.8769 229.6729 79 231c-1.1748 0.8394-2.3493 1.6792-3.5234 2.5195-1.7438 1.2457-3.489 2.4892-5.2383 3.7271-5.1248 3.6348-10.0985 7.4465-15.0625 11.2964-3.1852 2.4701-6.3939 4.9066-9.6133 7.332-0.9268 0.6987-1.8537 1.3973-2.8086 2.1172-8.2602 6.0223-8.2602 6.0223-10.8789 5.9453-2.2127-1.1063-4.0277-2.2881-5.875-3.9375 0-0.66 0-1.32 0-2-0.5981-0.2887-1.1963-0.5775-1.8125-0.875C22 256 22 256 19 254c0-0.66 0-1.32 0-2-0.5556-0.2462-1.1112-0.4924-1.6836-0.7461-2.7598-1.4939-4.9696-3.3045-7.3789-5.3164-0.9565-0.7941-1.913-1.5881-2.8984-2.4062C6.0362 242.6959 5.0333 241.8606 4 241c-2.059-1.6919-4.1233-3.377-6.1875-5.0625C-3.7917 234.625-5.3958 233.3125-7 232c-3.8566 2.1508-7.5432 4.2346-11 7-3.1612-1.3698-3.9927-1.9891-6-5 0.2204-2.4551 0.6203-3.6189 2.3669-5.3721 0.5686-0.398 1.1372-0.796 1.7229-1.206 0.6194-0.4383 1.2388-0.8766 1.877-1.3282 0.6503-0.4434 1.3007-0.8868 1.9707-1.3437 0.6465-0.4589 1.2929-0.9178 1.959-1.3906C-9.2894 220-9.2894 220-7 220c0-0.66 0-1.32 0-2 2.475-0.99 2.475-0.99 5-2 0-17.49 0-34.98 0-53-2.97-0.99-2.97-0.99-6-2-0.7502-0.281-1.5005-0.562-2.2734-0.8516-8.6152-3.1706-14.3329-2.7202-22.625 0.9766C-35 162-35 162-37 162c0.01 1.0533 0.01 1.0533 0.0202 2.1279 0.0604 6.6629 0.106 13.3258 0.1352 19.9889 0.0156 3.4245 0.0367 6.8488 0.0709 10.2731 0.0393 3.9494 0.0535 7.8988 0.0667 11.8484 0.0155 1.2119 0.0309 2.4238 0.0469 3.6724 15e-4 7.4947-0.9504 13.9779-3.3399 21.0893-0.66 0-1.32 0-2 0-0.0412 0.66-0.0825 1.32-0.125 2-2.8655 9.8246-12.0014 15.7097-20.5039 20.4727-12.5892 6.1351-25.7432 8.0932-39.5396 9.3129-6.5033 0.6446-11.2478 1.7464-16.8315 5.2144-2.5142 3.7713-2.1404 5.5145-1.543 9.8437 0.9548 3.7917 3.2042 5.2478 6.293 7.3438 3.3494 1.2095 6.7149 1.4068 10.25 1.8125 1 1 1 1 1.0977 3.5039-0.0116 1.0093-0.0232 2.0187-0.0352 3.0586-9e-3 1.0119-0.018 2.0238-0.0273 3.0664-0.0116 0.7825-0.0232 1.5649-0.0352 2.3711-5.607 2.8035-12.856 0.91-18.5156-0.9531-4.2422-1.7876-7.815-4.2984-11.4844-7.0469-1.0312-0.7013-2.0625-1.4025-3.125-2.125-6.6259-5.7005-11.3485-15.6381-12.0757-24.2524-0.1034-2.6692-0.1213-5.3265-0.1118-7.9976-0.0161-0.8946-0.0322-1.7892-0.0488-2.7109-62e-4-8.5539 1.8598-15.4876 6.9238-22.4766 0.5994-0.8469 1.1988-1.6938 1.8164-2.5664 0.8024-0.9262 0.8024-0.9262 1.6211-1.8711 0.66 0 1.32 0 2 0 0.379-0.8953 0.379-0.8953 0.7656-1.8086 2.7732-4.9233 7.9762-7.4096 13.168-9.207 7.2682-1.78 14.2445-2.1604 21.6914-2.3594C-86.1985 213.2006-69.5004 211.5894-59 201c8.5712-9.3275 8.4468-24.051 8.3406-35.9819 4e-4-1.3188 9e-4-2.6376 13e-4-3.9963 9e-4-3.5674-0.0166-7.1344-0.0377-10.7017-0.019-3.7462-0.0205-7.4925-0.0241-11.2387-93e-4-7.0722-0.0338-14.1442-0.064-21.2163-0.0337-8.0606-0.0501-16.1212-0.0651-24.1819C-50.8803 77.122-50.9329 60.561-51 44c-7.0822 5.4837-10.0074 11.7515-13 20-0.3436 0.8573-0.6872 1.7146-1.0412 2.5979-1.191 4.2261-1.2435 8.0314-1.23 12.3982-79e-4 1.3282-79e-4 1.3282-0.0159 2.6832-0.0102 1.9168-0.016 3.8336-0.0179 5.7504-36e-4 3.0457-0.0204 6.0911-0.0407 9.1367-0.0553 8.6577-0.086 17.3154-0.1106 25.9732-0.016 5.3044-0.0463 10.6085-0.0848 15.9128-0.0115 2.0092-0.0175 4.0184-0.0176 6.0275-12e-4 16.6008-0.0402 32.4719-12.1366 45.3209-1.6994 1.5294-3.4456 2.8696-5.3047 4.1992-0.9475 0.7328-0.9475 0.7328-1.9141 1.4805C-98.9973 205.0112-113.3162 207.2825-129 209c-1.485-4.455-1.485-4.455-3-9 2.5027-1.5731 4.7347-2.9159 7.5625-3.8125 3.4849-1.6978 4.5418-3.8315 6.4375-7.1875 0.5915-2.6398 0.9666-4.9577 1.1875-7.625 0.0733-0.7462 0.1466-1.4924 0.2222-2.2612C-115.52 167.116-115.3164 155.0363-115 143c-2.5223 0.0878-5.0415 0.1948-7.5625 0.3125-0.7045 0.0226-1.4089 0.0451-2.1348 0.0684-5.0876 0.2579-8.7129 1.4121-13.3027 3.6191-0.99 0.33-1.98 0.66-3 1-1.9749 2.9791-2.3181 5.6677-2.5625 9.1875-0.3381 4.7131-0.3381 4.7131-1.4375 5.8125-2.6706 0.1412-5.3243 0.0425-8 0-0.8167-1.748-1.6282-3.4985-2.4375-5.25-0.4525-0.9745-0.9049-1.9491-1.3711-2.9531-3.5901-8.428-3.7749-19.8464-0.4414-28.4219 1.766-3.7074 3.7043-7.1505 6.25-10.375 0.66 0 1.32 0 2 0 0.2449-0.5981 0.4898-1.1963 0.7422-1.8125 3.6319-6.3163 13.7009-10.8189 20.5469-12.875 4.3297-1.0426 8.2428-1.3893 12.7109-1.3125 0.0864-0.8108 0.1727-1.6216 0.2617-2.457C-112.7968 82.2427-105.4783 68.461-94 58c2.7461-1.2539 2.7461-1.2539 5-2 0-0.66 0-1.32 0-2 1.8387-1.4505 3.7502-2.809 5.6875-4.125 0.5785-0.3931 1.1571-0.7862 1.7532-1.1912C-64.2173 37-64.2173 37-61 37c0-0.66 0-1.32 0-2 0.5337-0.2797 1.0673-0.5595 1.6172-0.8477 5.2181-2.8076 10.022-5.9472 14.8398-9.3906C-40.4921 21.9553-36.2432 19.501-32 17c7.8481-4.7583 15.6522-9.7363 22.9922-15.2461C-5.5424-0.2668-3.9384-0.6789 0 0zM77 41c-0.139 8.6665-0.2456 17.3326-0.3109 25.9999-0.0313 4.0247-0.0737 8.0486-0.1417 12.0729-0.0652 3.8839-0.1011 7.7671-0.1167 11.6515-0.011 1.4817-0.0327 2.9633-0.0651 4.4447-0.0436 2.0764-0.0495 4.1497-0.0468 6.2265-0.0133 1.1814-0.0266 2.3627-0.0403 3.5799 0.4644 3.2947 0.4644 3.2947 3.5766 5.3749 4.2605 2.2349 7.4399 2.877 12.2074 3.0247 1.5952 0.0735 1.5952 0.0735 3.2227 0.1484 5.1609-0.7272 9.197-3.0117 13.7148-5.5234 0.2235-5.8347 0.3863-11.6669 0.4944-17.5049 0.0451-1.9828 0.1064-3.9654 0.1846-5.9472 0.8406-11.2025 0.8406-11.2025-2.5291-21.5164C104.8703 60.9964 102.6567 59.4962 100 58c-0.9797-0.8263-1.9594-1.6526-2.9687-2.5039C94.3598 53.3235 91.6846 51.1562 89 49c-0.8559-0.6896-1.7119-1.3793-2.5937-2.0898C85.6122 46.2798 84.8181 45.6495 84 45c-0.7013-0.5569-1.4025-1.1138-2.125-1.6875C79.9301 41.8184 79.9301 41.8184 77 41zM-37 42c0 21.78 0 43.56 0 66 10.8753 5.5456 10.8753 5.5456 22 5 2.3301-0.9323 4.6275-1.9502 6.8867-3.043 1.7261-0.826 1.7261-0.826 3.4871-1.6687C-3.7596 107.8632-2.8929 107.438-2 107c0.223-5.8713 0.386-11.7402 0.4944-17.6147 0.0452-1.9966 0.1065-3.9928 0.1846-5.9883 0.9603-11.0137 0.9603-11.0137-2.5533-20.9532C-6.212 60.8899-8.3568 59.9196-11 59c-1.6095-1.1174-3.2148-2.2408-4.8125-3.375C-26.0818 48.2792-26.0818 48.2792-37 42zM54.5 47.4375c-1.0538 0.6313-1.0538 0.6313-2.1289 1.2754C48.9986 50.605 48.9986 50.605 46 53c-0.1186 1.9937-0.1664 3.9917-0.1875 5.9888-0.0159 1.3024-0.0317 2.6048-0.048 3.9467-0.0124 1.4571-0.0246 2.9143-0.0367 4.3714-0.0161 1.5241-0.0325 3.0482-0.0491 4.5723-0.1449 13.9355-0.2198 27.8719-0.279 41.8081-0.0445 10.3028-0.1216 20.6042-0.2415 30.9064-0.0815 7.2417-0.1246 14.483-0.1398 21.7251-0.0101 4.3259-0.0374 8.65-0.1063 12.9754-0.0642 4.0742-0.0807 8.1459-0.0615 12.2206-11e-4 1.4916-0.0193 2.9833-0.0561 4.4745-0.3032 8.3424-0.3032 8.3424 3.3333 15.5847 2.5329 2.047 5.0941 3.7332 7.8722 5.426 0.8918 0.728 1.7837 1.4561 2.7025 2.2062 2.0744 1.9989 2.0744 1.9989 4.2975 1.7938 0-58.74 0-117.48 0-178-2.7219 0-6.1258 3.0021-8.5 4.4375zM-5.5 122.375c-11.5055 5.3419-19.323 3.684-31.5-0.375 0 8.58 0 17.16 0 26 2.97-0.99 5.94-1.98 9-3 8.198-0.8421 15.5385-0.5872 23 3 0.99 0.33 1.98 0.66 3 1 0-9.24 0-18.48 0-28-1.3295-0.0803-1.3295-0.0803-3.5 1.375zM101.3242 124.2461C92.1975 127.2065 86.7062 125.6471 77 123c0 8.25 0 16.5 0 25 2.97-0.99 5.94-1.98 9-3 3.3711-0.3984 3.3711-0.3984 6.4375-0.375 1.0093-77e-4 2.0187-0.0155 3.0586-0.0234C99 145 99 145 109 148c0-8.58 0-17.16 0-26-2.562 0-5.2739 1.4243-7.6758 2.2461z" />
    <path transform="translate(1341.453125 24.496094)" d="M0 0c3.2079 1.8942 6.3738 3.8297 9.4844 5.8789 0.8923 0.5801 0.8923 0.5801 1.8027 1.1719 2.7518 1.7924 5.4765 3.6043 8.1699 5.4844 3.7308 2.3771 7.5799 4.2402 11.5899 6.0937 0.7335 0.3468 1.4669 0.6935 2.2226 1.0508 4.029 1.8811 8.0172 3.5165 12.2774 4.8242 0 0.66 0 1.32 0 2 7.7142 2.2636 7.7142 2.2636 15.2109 0.832 1.1348-1.0808 2.2336-2.2009 3.2891-3.3593 2.2263-2.1858 4.4732-2.325 7.5-2.4727 2 3 2 3 1.8454 4.9509-1.0508 2.5469-2.3926 3.9211-4.3728 5.8343-1.0644 1.0431-1.0644 1.0431-2.1504 2.1074-0.7457 0.7161-1.4914 1.4321-2.2597 2.1699-1.4696 1.4262-2.9372 2.8545-4.4024 4.2852-0.9802 0.9437-0.9802 0.9437-1.9802 1.9065-1.8726 1.8428-1.8726 1.8428-3.6799 4.7458-0.66 0-1.32 0-2 0-0.2468 0.5648-0.4936 1.1295-0.7478 1.7114-2.5686 4.6945-6.628 8.3341-10.3147 12.1636-1.2327 1.3574-1.2327 1.3574-2.4903 2.7422-5.9677 6.1603-5.9677 6.1603-9.6318 6.7114-2.5051-0.4562-4.5029-1.2574-6.8154-2.3286-0.9685-0.4162-1.937-0.8324-2.9348-1.2612-3.2702-1.4648-6.4793-3.0236-9.6902-4.6138-1.0932-0.5298-2.1863-1.0596-3.3125-1.6055-5.4874-2.6772-10.7487-5.483-16.0625-8.5195 0 59.73 0 119.46 0 181 16.565-4.3592 28.415-8.1904 41-19 0.8456-0.7128 1.6912-1.4257 2.5625-2.1602 6.3218-5.4845 11.2659-10.8799 15.2968-18.2304 5.0845-9.203 5.0845-9.203 8.3946-10.4766 2.1836-78e-4 2.1836-78e-4 5.7461 0.8672 1.7169 1.7169 1.2131 3.9048 1.25 6.25-0.1028 10.8258-3.3057 20.759-7.25 30.75-0.66 0-1.32 0-2 0-0.1148 0.7193-0.2295 1.4386-0.3477 2.1797-3.5382 15.2972-19.3612 29.7364-31.9336 38.3906-25.0407 15.5285-55.0733 20.9217-83.9609 14.4688-12.2598-3.3899-23.5491-8.035-34.7578-14.0391 0-0.66 0-1.32 0-2-0.7116-0.2514-1.4231-0.5027-2.1563-0.7617-7.0989-3.0912-16.4098-9.2272-19.9062-16.4258-0.7776-1.9634-0.7776-1.9634-2.7266-2.6172-8.0261-4.3392-13.7224-15.4924-18.2109-23.1953-0.5339-0.9083-0.5339-0.9083-1.0786-1.835-6.3508-10.9343-10.7548-21.9288-13.9214-34.165-0.2669-0.9951-0.2669-0.9951-0.5391-2.0102-2.5643-9.9799-2.7294-19.9159-2.7734-30.1773-57e-4-1.2469-0.0113-2.4938-0.0171-3.7786 0.093-11.9497 1.439-23.4863 5.0171-34.9089 0.2605-0.8444 0.5211-1.6888 0.7895-2.5588 4.0874-12.8692 9.4063-25.6693 17.523-36.5662 0.66 0 1.32 0 2 0 0.2191-0.6884 0.4383-1.3767 0.664-2.0859 1.6883-3.6827 4.0696-6.5152 6.711-9.5391 0.5316-0.6125 1.0633-1.2249 1.6111-1.856 13.3416-15.1112 29.3306-26.0237 47.0139-35.519 0.6626-0.3764 1.3251-0.7528 2.0078-1.1406 1.9922-0.8594 1.9922-0.8594 5.9922-0.8594 0-0.66 0-1.32 0-2 2.97-0.66 5.94-1.32 9-2 1.32 1.65 2.64 3.3 4 5-1.4464 3.6041-3.1914 5.114-6.4375 7.1875-0.7825 0.5092-1.5649 1.0184-2.3711 1.543-2.1914 1.2695-2.1914 1.2695-5.1914 2.2695-1.3785 1.2866-2.7053 2.6291-4 4-2.5317 2.5317-5.063 5.0614-7.625 7.5625-2.0117 2.0646-3.6794 4.1195-5.375 6.4375 11.3507-6.5445 22.5503-13.3009 33.4648-20.5547 2.7681-1.5781 5.4893-2.532 8.5352-3.4453 0-0.66 0-1.32 0-2 0.5489-0.3 1.0978-0.6001 1.6633-0.9092 5.4244-2.9861 10.7477-6.1013 16.0242-9.3408 0.7724-0.4695 1.5448-0.9389 2.3406-1.4226 3.75-2.2916 7.4507-4.6238 11.0734-7.1125 0.6295-0.4271 1.259-0.8541 1.9075-1.294 1.7011-1.1634 3.3876-2.3481 5.073-3.5342C-2.4531-0.4961-2.4531-0.4961 0 0zM-36.4531 36.5039c-0.33 43.23-0.66 86.46-1 131-16.3965 7.6517-16.3965 7.6517-22.3682 9.9717-3.2872 1.2844-6.5496 2.6268-9.8115 3.9736-0.9398 0.3879-0.9398 0.3879-1.8985 0.7836-1.2823 0.5297-2.5645 1.0597-3.8466 1.59-1.9672 0.8131-3.9353 1.6241-5.9034 2.435-1.263 0.522-2.526 1.0441-3.789 1.5664-1.1304 0.4668-2.2607 0.9336-3.4253 1.4146-2.3709 1.0142-4.671 2.0762-6.9575 3.2651 1.5021 11.327 13.6096 21.7072 22.0468 28.6953 11.7799 8.7046 28.1112 14.4581 42.7156 14.3506 1.1687-66e-4 2.3374-0.0132 3.5415-0.0201 0.8897-85e-4 1.7794-0.017 2.6961-0.0258 0.2336-24.9126 0.4099-49.8249 0.5181-74.7384 0.0516-11.5678 0.1219-23.1349 0.2363-34.7023 0.0996-10.0821 0.1642-20.1637 0.1865-30.2463 0.013-5.3391 0.0436-10.6767 0.1164-16.0153 0.0679-5.0261 0.0888-10.0503 0.0738-15.0769 27e-4-1.8435 0.0226-3.6871 0.0609-5.5303 0.5124-9.8156 0.5124-9.8156-3.4243-18.3775-4.4744-3.265-4.4744-3.265-9.7677-4.313zM-91.7656 69.7539c-0.9655 0.6033-1.931 1.2066-2.9258 1.8281-9.3911 6.5353-11.093 17.7019-13.179 28.4143-4.4548 26.1484-3.4361 55.4755 5.4173 80.5076 1.336-0.235 2.6687-0.4891 4-0.75 1.1137-0.2088 1.1137-0.2088 2.25-0.4219 3.7613-1.1326 7.2365-3.0714 10.75-4.8281 0-35.64 0-71.28 0-108-2.1924 0-4.5536 2.1411-6.3125 3.25z" />
    <path transform="translate(555 37)" d="M0 0c2 0 2 0 3.625 1.5625C4.4088 2.3669 5.1925 3.1713 6 4 7.2411 5.1142 8.4921 6.2174 9.75 7.3125c0.6871 0.5994 1.3741 1.1988 2.082 1.8164 1.4684 1.2673 2.9453 2.5249 4.4297 3.7734 0.718 0.6098 1.436 1.2195 2.1758 1.8477 0.6587 0.5517 1.3174 1.1034 1.9961 1.6719C22 18 22 18 23 21c0.8044 0.3094 1.6088 0.6187 2.4375 0.9375C28.5528 23.2292 28.5561 24.1121 30 27c0.7219 0.2681 1.4438 0.5362 2.1875 0.8125 3.4613 1.4615 5.2192 3.4923 7.7813 6.1836 3.0186 2.978 6.3481 5.5182 9.6992 8.1094 3.1182 2.5332 5.8226 5.3568 8.582 8.2695 2.1143 2.0182 4.0943 3.6683 6.4375 5.375C69.7765 59.4832 74.3546 63.7364 79 68c5.0024 4.5757 10.0287 9.0625 15.3125 13.3125 4.8913 3.9547 9.5082 8.141 14.1035 12.4299 3.7778 3.5254 7.6211 6.9399 11.584 10.2576 3.6053-1.0925 5.8068-2.6475 8.5-5.1875 3.1535-2.7712 3.1535-2.7712 6.125-3.125 3.4564 1.9101 5.7275 4.7195 7.375 8.3125-1.1977 3.5931-2.4677 4.4209-5.4375 6.6875-0.8031 0.6226-1.6062 1.2452-2.4336 1.8867C132 114 132 114 130 114c-0.33 0.99-0.66 1.98-1 3-0.66 0-1.32 0-2 0 0.03 1.8592 0.03 1.8592 0.0606 3.756 0.1824 11.6825 0.3173 23.3647 0.4057 35.0483 0.047 6.0067 0.1107 12.0124 0.2127 18.0185 0.0978 5.7967 0.1516 11.5923 0.1749 17.3897 0.0166 2.2114 0.0491 4.4227 0.0977 6.6335 0.0654 3.0991 0.0743 6.1935 0.0701 9.2932 0.0324 0.9135 0.0647 1.827 0.0981 2.7681-0.0386 2.6503-0.1738 4.6129-1.1198 7.0927-2.716 2.5976-5.6712 4.2937-9 6-1.0454 0.62-2.0909 1.2401-3.168 1.8789-0.9964 0.5556-1.9929 1.1112-3.0195 1.6836-6.1105 3.4413-12.1556 6.9855-18.1875 10.5625-9.1414 5.4194-18.312 10.7869-27.5054 16.1177-1.4166 0.8234-1.4166 0.8234-2.8618 1.6635-0.8969 0.5195-1.7937 1.039-2.7178 1.5743-3.0113 1.8014-5.9161 3.7398-8.7905 5.7519-2.302 1.01-3.4283 0.6178-5.7495-0.2324-1.832-1.0586-1.832-1.0586-3.8125-2.4375-0.7928-0.544-1.5855-1.088-2.4023-1.6484C38.8661 257.2824 37.947 256.6508 37 256c-1.6746-1.1137-3.3493-2.2272-5.0261-3.3374-6.6956-4.4366-13.3436-8.9417-19.9739-13.4751-1.1831-0.8084-1.1831-0.8084-2.3901-1.6331-1.1372-0.7791-1.1372-0.7791-2.2974-1.5739-0.9958-0.6822-0.9958-0.6822-2.0117-1.3782C4.5415 234.0735 3.7823 233.5448 3 233c-0.5673-0.2907-1.1346-0.5814-1.7191-0.8809-2.9524-1.6874-4.922-2.9706-5.9633-6.3028-0.2951-2.792-0.3663-5.5152-0.3662-8.3229-0.0267-1.0576-0.0534-2.1151-0.081-3.2047-0.0767-3.4965-0.1001-6.9907-0.1165-10.4879-0.0276-2.4352-0.0559-4.8703-0.085-7.3054-0.0509-5.107-0.0719-10.2131-0.0759-15.3204-0.0104-6.5314-0.1266-13.0563-0.2698-19.5861-0.0931-5.0319-0.1134-10.0621-0.1138-15.0948-0.0119-2.4063-0.05-4.8126-0.115-7.2181-0.4535-18.3145-0.4535-18.3145 3.4745-23.2455 3.7645-3.2669 7.9212-5.3508 12.515-7.2138 2.669-1.1376 5.0167-2.6695 7.4239-4.2776 1.1679-0.7367 1.1679-0.7367 2.3594-1.4883 0.7451-0.4705 1.4901-0.941 2.2578-1.4258 0.7838-0.4937 1.5675-0.9874 2.375-1.4961C28.7055 97.4739 32.8761 94.78 37 92c-0.99-0.495-0.99-0.495-2-1 0-0.66 0-1.32 0-2-0.5946-0.2724-1.1892-0.5448-1.8018-0.8254-2.1426-1.1449-3.6183-2.301-5.3701-3.9676-0.8678-0.8174-0.8678-0.8174-1.7531-1.6513-0.9034-0.8629-0.9034-0.8629-1.825-1.7432-1.2479-1.1767-2.4966-2.3524-3.7461-3.5273-0.9008-0.8486-0.9008-0.8486-1.8198-1.7144-2.7175-2.5347-5.5135-4.974-8.3286-7.3989C9.5476 67.4734 8.7552 66.7552 8 66c-1.1344 0.0206-2.2687 0.0413-3.4375 0.0625C1 66 1 66-1 64c-0.2472-2.6255-0.2472-2.6255-0.2429-5.9944-31e-4-1.2579-62e-4-2.5158-93e-4-3.8119 69e-4-1.3784 0.0141-2.7567 0.0217-4.1351 12e-4-1.4072 17e-4-2.8144 14e-4-4.2217 16e-4-2.9498 99e-4-5.8995 0.0233-8.8494 0.017-3.7888 0.0208-7.5776 0.02-11.3665 3e-4-2.9055 58e-4-5.811 0.013-8.7165 32e-4-1.3975 52e-4-2.795 59e-4-4.1926 22e-4-1.949 0.0117-3.8979 0.0216-5.8469 38e-4-1.1109 77e-4-2.2219 0.0116-3.3665C-1 1-1 1 0 0zM45 100c0 35.64 0 71.28 0 108 0.66 0 1.32 0 2 0 0 0.66 0 1.32 0 2 1.5126 1.1742 1.5126 1.1742 3.4883 2.2773 4.3466 2.6103 8.5268 5.4064 12.6992 8.2852 0.6851 0.4686 1.3703 0.9371 2.0762 1.4199 2.9598 2.0369 5.8148 4.0817 8.5996 6.3574 1.9489 1.8647 1.9489 1.8647 4.1367 1.6602 0.1622-13.065 0.2866-26.1297 0.3627-39.1954 0.0365-6.0671 0.0861-12.1334 0.1654-18.2001 0.076-5.855 0.1179-11.7094 0.136-17.5649 0.013-2.2336 0.0382-4.4671 0.076-6.7004 0.0509-3.1297 0.0578-6.2566 0.0546-9.3866 0.0251-0.9228 0.0503-1.8457 0.0762-2.7965-0.0389-4.887-0.0389-4.887-2.3963-9.0182-1.7598-1.5135-3.5639-2.824-5.4746-4.1379-1.68-1.6533-3.3461-3.3207-5-5-2.5423-2.4591-5.1127-4.8875-7.6875-7.3125-0.6761-0.6452-1.3522-1.2904-2.0488-1.9551-0.6478-0.6091-1.2955-1.2181-1.9629-1.8457-0.5861-0.5547-1.1723-1.1094-1.7761-1.6809C51.0625 103.7932 51.0625 103.7932 49 104c0-0.66 0-1.32 0-2-1.32-0.66-2.64-1.32-4-2z" />
    <path transform="translate(2127 115)" d="M0 0c3.913 1.5315 5.8082 3.9228 8.375 7.1875 0.7863 0.9861 1.5727 1.9723 2.3828 2.9883C11.4977 11.1078 12.2377 12.0398 13 13c3.4837 4.2101 7.0794 8.1854 11 12 1 1 2 2 3 3 3.794-1.0671 6.1416-2.8961 9-5.5s5.206-4.4329 9-5.5c0-0.66 0-1.32 0-2 1.4053-1.281 1.4053-1.281 3.3594-2.7148 1.0557-0.7822 1.0557-0.7822 2.1328-1.5801 0.7451-0.5421 1.4901-1.0841 2.2578-1.6426 0.7296-0.5382 1.4592-1.0764 2.2109-1.6309 1.37-1.01 2.7418-2.0173 4.1162-3.0212C61.0622 2.9544 63.0329 1.4802 65 0c4.1442 1.7004 7.2437 4.6416 10.5625 7.5625 1.257 1.0921 2.5148 2.1832 3.7734 3.2734 0.621 0.5385 1.242 1.077 1.8819 1.6319C85.4048 16.0674 89.7119 19.5222 94 23c2.0641 1.6856 4.1257 3.3741 6.1875 5.0625 0.9217 0.7541 1.8434 1.5082 2.793 2.2852 0.6664 0.5452 1.3329 1.0905 2.0195 1.6523 3.7601-1.3036 6.2315-2.8449 9.125-5.5625 2.4265-2.2707 3.6756-3.371 6.875-4.4375 1.2025 1.2355 2.3867 2.489 3.5625 3.75 0.6613 0.6961 1.3226 1.3922 2.0039 2.1094C128 30 128 30 127.7833 32.0049c-1.1157 2.8417-3.2361 3.668-5.7622 5.1929-4.1093 2.596-8.0439 5.2872-9.855 9.9484-1.2956 6.1742-1.0527 12.462-0.92 18.7366-18e-4 2.0254-82e-4 4.0508-0.019 6.0762-71e-4 4.2293 0.0345 8.4545 0.1125 12.6831 0.0967 5.4032 0.0817 10.7991 0.0316 16.2027-0.0282 4.1769-24e-4 8.3522 0.04 12.5289 0.0148 1.9909 0.0143 3.982-21e-4 5.9729-0.4984 11.2301-0.4984 11.2301 4.1442 20.9278 2.721 2.247 5.3323 4.0779 8.4467 5.7256 3.2682-1.257 5.7955-2.4614 8.5-4.6875 2.2937-1.6582 3.2598-2.2839 6.125-2.625 3.7186 2.055 5.9008 5.3532 7.375 9.3125-0.0547 2.5508-0.0547 2.5508-1 5-2.1875 1.8086-2.1875 1.8086-5 3.4375-0.9939 0.593-1.9877 1.1859-3.0117 1.7969-0.9862 0.5826-1.9723 1.1653-2.9883 1.7656-1.6124 1.0499-3.2174 2.1114-4.8125 3.1875-0.7193 0.4808-1.4386 0.9616-2.1797 1.457-1.2811 0.8649-2.5577 1.7367-3.8281 2.6172C119.202 170 119.202 170 117 170c0 0.66 0 1.32 0 2-1.8008 1.2266-1.8008 1.2266-4.3125 2.625-5.0232 2.8897-9.5685 6.1897-14.1445 9.7383C94.2086 187.153 94.2086 187.153 91 187c-2.6717-1.8039-4.8644-4.0257-7.125-6.3125-1.2303-1.206-2.462-2.4105-3.6953-3.6133-0.539-0.5405-1.078-1.081-1.6333-1.6379-1.694-1.6501-1.694-1.6501-4.5464-3.4363 0-0.66 0-1.32 0-2-0.5888-0.2673-1.1776-0.5346-1.7842-0.8101-2.2464-1.2063-3.8206-2.4833-5.6689-4.229-0.6188-0.58-1.2375-1.1601-1.875-1.7578-0.6342-0.6033-1.2685-1.2065-1.9219-1.8281-0.6497-0.611-1.2994-1.222-1.9687-1.8516C59.1835 158.0197 57.59 156.5118 56 155c0.9688-5.025 4.1503-7.5769 8.1287-10.6376 2.6619-3.3604 2.4848-6.5452 2.5-10.66 0.0273-1.252 0.0273-1.252 0.0553-2.5294 0.0533-2.7596 0.0757-5.5184 0.0933-8.2785 0.0205-1.9233 0.0412-3.8465 0.0619-5.7698 0.0375-4.0342 0.0569-8.0681 0.0668-12.1025 0.0163-5.1549 0.102-10.3062 0.2047-15.4601 0.0672-3.9748 0.0846-7.9488 0.0887-11.9241 0.0102-1.8991 0.0386-3.7981 0.0859-5.6966 0.5216-10.6816 0.5216-10.6816-3.7016-20.0641C60.8239 49.6039 58.0891 47.7873 55 46c-1.1163-0.9148-2.2109-1.8583-3.2617-2.8477-1.6445-1.5014-3.2904-3.0014-4.9375-4.5C46.2065 38.1071 45.6123 37.5618 45 37c-0.5634 0.2832-1.1269 0.5664-1.7074 0.8581-1.5132 0.7537-3.0523 1.4575-4.6134 2.1061C35.5965 41.6692 34.0083 43.0713 32 46c-1.7878 6.9847-1.186 14.5368-1.0977 21.6836-56e-4 2.1423-0.0152 4.2847-0.0286 6.427-0.0246 5.6246 44e-4 11.2476 0.0448 16.872 0.0316 5.7448 0.0124 11.4894-25e-4 17.2342C30.8943 119.4783 30.9293 130.7388 31 142c0.6061 0.2838 1.2122 0.5675 1.8367 0.8599 2.9731 1.5669 5.0744 3.6728 7.4758 6.0151 0.9036 0.8637 1.8073 1.7273 2.7383 2.6172C45 154 45 154 45.1406 155.9883c-1.702 3.0018-4.1318 5.0856-6.7031 7.3242-0.5465 0.4878-1.093 0.9757-1.656 1.4783C35.1954 166.2029 33.5998 167.6034 32 169c-0.7219 0.6342-1.4438 1.2684-2.1875 1.9219-1.242 1.0867-2.488 2.1688-3.7383 3.2461-1.6468 1.4545-3.2627 2.9441-4.8672 4.4453-0.4891 0.4562-0.9782 0.9125-1.4821 1.3825-1.408 1.3166-2.8088 2.6407-4.2093 3.9651C13.0785 185.9364 12.0292 186.6343 9 187c-2.3905-1.5625-4.4557-3.1086-6.625-4.9375-0.6239-0.5085-1.2478-1.0171-1.8906-1.541-1.2584-1.0267-2.5127-2.0584-3.7627-3.0952-2.218-1.8374-4.4679-3.633-6.7217-5.4263-0.7734-0.6213-1.5469-1.2427-2.3437-1.8828-2.097-1.6714-4.2012-3.3315-6.3125-4.9844-0.6356-0.4976-1.2711-0.9951-1.9258-1.5078-1.2569-0.983-2.5147-1.9648-3.7735-2.9453-2.3197-1.8141-4.5599-3.5951-6.6445-5.6797 0.0331-1.8777 0.0331-1.8777 1-4 1.7965-1.356 3.6253-2.6695 5.4712-3.9575 4.5586-3.7361 6.2429-6.9916 6.8273-12.8527 0.224-4.6288 0.2226-9.2367 0.1624-13.8695 75e-4-2.0196 0.0181-4.0393 0.0319-6.0589 0.0162-4.222-71e-4-8.4415-0.0587-12.6633-0.0626-5.3836-0.0266-10.7613 0.0393-16.1447 0.0399-4.1683 0.027-8.3352-14e-4-12.5035-73e-4-1.9829 14e-4-3.966 0.0272-5.9488 0.1016-9.9948 0.178-17.8283-7.0905-25.3102C-26.3415 40.0276-28.1136 38.5129-30 37c-0.7958 0.4698-1.5915 0.9396-2.4114 1.4236-7.798 4.6037-7.798 4.6037-11.3073 4.4826C-47.5689 41.3768-48.2239 38.6179-50 35c2.8982-3.0891 5.8855-5.3886 9.4375-7.6875 4.3346-2.839 8.6251-5.7231 12.875-8.6875 6.6053-4.5919 13.2909-9.0574 19.9956-13.5024C-5.125 3.4194-2.5625 1.7097 0 0z" />
    <path transform="translate(922 115)" d="M0 0c8.8449 7.0759 16.2743 15.7596 23.4648 24.4766C25.1697 26.1684 26.8097 27.0444 29 28c0.6316-0.5221 1.2633-1.0441 1.9141-1.582C42.0279 17.2738 53.2747 8.3513 65 0c4.5537 2.4799 8.2081 5.6438 12.0625 9.0625 1.3338 1.1702 2.6685 2.3395 4.0039 3.5078 0.6615 0.5791 1.3229 1.1582 2.0044 1.7549 3.7243 3.2332 7.5268 6.37 11.3354 9.5029 2.2629 1.8948 4.4267 3.8576 6.5938 5.8594 2.6179 2.5367 2.6179 2.5367 4.8789 2.2148 3.7756-1.6061 6.5536-4.5762 9.5859-7.2851C118 23 118 23 120.6367 23.082 124.4909 24.5791 125.7128 26.5692 128 30c0.125 2.1875 0.125 2.1875-1 4-1.6379 1.0464-3.3101 2.0398-5 3-1.6876 1.6454-3.354 3.3129-5 5-0.8613 0.5364-1.7225 1.0727-2.6099 1.6253-2.8167 2.7985-3.0158 4.576-3.1344 8.4728 7e-4 0.8115 14e-4 1.623 21e-4 2.459-0.0276 1.2935-0.0276 1.2935-0.0557 2.6132-0.0527 2.8524-0.0673 5.7034-0.0771 8.5563-0.0186 1.9881-0.0378 3.9763-0.0576 5.9644-0.0345 4.1713-0.0477 8.3421-0.0488 12.5136-51e-4 5.3275-0.0836 10.6512-0.1811 15.9777-0.0634 4.1096-0.0764 8.2183-0.0758 12.3283-78e-4 1.9624-0.0333 3.9248-0.0776 5.8867-0.5751 11.195-0.5751 11.195 3.7085 21.1302 2.5881 2.6811 5.2517 4.8046 8.6074 6.4725 4.3506-0.3559 7.3762-3.2898 10.7813-5.8203C136 139 136 139 138.0742 139.082c2.4693 1.1771 3.6044 2.5452 5.2383 4.7305 0.5324 0.6871 1.0648 1.3741 1.6133 2.082C146 148 146 148 145.7515 149.9792c-1.2813 3.4454-4.496 5.0408-7.439 7.0208-0.6129 0.4254-1.2259 0.8508-1.8574 1.2891-4.8734 3.3695-9.8222 6.6281-14.7598 9.9023-0.5758 0.3825-1.1516 0.7649-1.7449 1.1589-1.2532 0.8322-2.5073 1.663-3.7622 2.4927-3.5715 2.3722-7.0984 4.791-10.5827 7.2898-0.7176 0.5098-1.4351 1.0195-2.1743 1.5447-1.3914 0.9916-2.7755 1.9935-4.1514 3.0063-4.7586 3.3747-4.7586 3.3747-7.3103 3.0884-3.2408-1.2707-5.5028-3.766-7.9695-6.1472-4.0274-3.8622-4.0274-3.8622-8.375-7.3516C75.0888 172.8532 74.5525 172.433 74 172c0-0.66 0-1.32 0-2-0.5569-0.2385-1.1137-0.477-1.6875-0.7227-2.8355-1.5662-4.9397-3.512-7.3125-5.7148-3.5124-3.2537-3.5124-3.2537-7.2773-6.1992C56 156 56 156 55.4375 153.625 56.2404 149.8781 58.1373 148.481 61 146c1.3016-0.8087 1.3016-0.8087 2.6294-1.6337 2.7586-2.7536 2.9945-4.4557 3.1149-8.2851-7e-4-0.785-14e-4-1.57-21e-4-2.3788 0.0184-0.8347 0.0368-1.6694 0.0557-2.5294 0.0526-2.7598 0.0673-5.5182 0.0771-8.2785 0.0186-1.9233 0.0378-3.8465 0.0576-5.7698 0.0345-4.0343 0.0477-8.0681 0.0488-12.1025 51e-4-5.155 0.0836-10.3061 0.1811-15.4601 0.0633-3.9749 0.0764-7.9488 0.0758-11.9241 78e-4-1.8991 0.0333-3.7981 0.0776-5.6966 0.4982-10.6801 0.4982-10.6801-3.7267-20.0641C60.8272 49.5974 58.1 47.7803 55 46c-1.1819-0.922-2.3469-1.8669-3.4805-2.8477-0.8933-0.7309-1.7866-1.4618-2.707-2.2148C47.2083 39.625 45.6042 38.3125 44 37c-0.6265 0.4331-1.253 0.8663-1.8984 1.3125C41.2843 38.8694 40.467 39.4263 39.625 40c-0.8121 0.5569-1.6242 1.1138-2.4609 1.6875C35 43 35 43 33 43c-1.3253 3.9759-1.2312 7.829-1.304 11.9785-0.0194 0.9191-0.0388 1.8382-0.0588 2.7852-0.1688 8.4869-0.2655 16.9751-0.3411 25.4633-0.0513 5.6987-0.1258 11.3949-0.2563 17.0923-0.1259 5.5151-0.1921 11.028-0.2173 16.5444-0.0195 2.0957-0.0598 4.1913-0.1218 6.2862-0.7759 12.0193-0.7759 12.0193 4.0177 22.5139 2.0649 2.0022 4.2395 3.677 6.6014 5.3117C44 153 44 153 44.8742 155.2736 44.9157 155.8433 44.9572 156.413 45 157c-11.9108 10.9778-11.9108 10.9778-17.8594 16.1016-1.7494 1.5515-3.457 3.1288-5.1562 4.7343-0.5337 0.5008-1.0674 1.0016-1.6172 1.5176-1.0578 0.9952-2.1102 1.9963-3.1563 3.0039-1.946 1.8251-3.8501 3.4422-6.1875 4.7403-3.4133-0.1648-5.6208-2.4387-8.1484-4.5352-0.5769-0.4616-1.1539-0.9231-1.7483-1.3987C-0.5911 179.7865-2.2958 178.3941-4 177c-1.6448-1.3138-3.2905-2.6265-4.9375-3.9375-0.7837-0.6316-1.5675-1.2633-2.375-1.9141-2.0948-1.6746-4.1986-3.3342-6.3125-4.9843-0.6304-0.4925-1.2609-0.985-1.9104-1.4925-1.2427-0.9696-2.4866-1.9376-3.7319-2.9038-1.5894-1.241-3.1619-2.5034-4.7327-3.7678-0.651-0.5195-1.302-1.039-1.9727-1.5742C-31 155-31 155-30.907 153.1574c1.3188-3.1369 3.6174-4.1751 6.3914-6.1017 3.7031-3.0294 5.7614-5.6737 6.5293-10.464 0.4841-5.4915 0.358-10.9771 0.2363-16.4823-78e-4-2.034-0.0115-4.068-0.0112-6.102-0.0108-4.2474-0.0582-8.4922-0.1343-12.7388-0.0965-5.4366-0.1225-10.8706-0.1239-16.308-53e-4-4.1936-0.037-8.3866-0.0779-12.58-0.0184-2.0046-0.031-4.0092-0.0378-6.0138-0.0156-2.8008-0.0643-5.5989-0.1227-8.399 1e-3-1.2345 1e-3-1.2345 21e-4-2.4939C-18.4294 49.6172-19.8634 47.1452-24 43c-0.8456-0.9487-1.6912-1.8975-2.5625-2.875C-28.9636 37.5619-28.9636 37.5619-33 38c-2.0117 1.1093-2.0117 1.1093-3.9375 2.5625-3.7175 2.414-3.7175 2.414-6.8125 2.625C-46.9603 41.4932-48.2216 39.0957-50 36c1.5033-4.3331 4.7344-6.1089 8.4375-8.4375 1.3629-0.8814 2.7249-1.7642 4.0859-2.6484 0.7255-0.4689 1.4509-0.9378 2.1983-1.4209 3.9934-2.6172 7.9116-5.3436 11.8408-8.0557C-15.723 10.1328-7.9164 4.9978 0 0z" />
    <path transform="translate(1708.890625 115.117188)" d="M0 0c2.8362 1.187 4.6208 2.9047 6.8594 5.0078 0.874 0.807 1.7479 1.6139 2.6484 2.4453 0.8585 0.8018 1.717 1.6036 2.6016 2.4297 1.4506 1.3417 2.9082 2.676 4.375 4 0.9088 0.8353 0.9088 0.8353 1.8359 1.6875 2.042 1.4981 3.2461 2.1947 5.7891 2.3125 2.0928-1.4553 2.0928-1.4553 4-3.5 2-2.0312 2-2.0312 4-3.5 3.4883 0.184 4.204 1.1995 6.8125 3.75 2.1875 3.25 2.1875 3.25 2.1679 5.6914-1.357 3.5414-3.3529 4.6624-6.4804 6.7461-3.8664 2.3523-3.8664 2.3523-6.5 5.8125-0.0978 1.3711-0.135 2.7469-0.1405 4.1215-57e-4 0.8633-0.0114 1.7267-0.0173 2.6162-11e-4 0.9496-22e-4 1.8992-34e-4 2.8775-49e-4 0.9986-99e-4 1.9972-0.015 3.0261-0.0147 3.3175-0.0214 6.6349-0.027 9.9525-57e-4 2.3049-0.0115 4.6097-0.0172 6.9146-0.0105 4.8423-0.0164 9.6845-0.0199 14.5268-54e-4 6.1892-0.0294 12.3782-0.0579 18.5674-0.0187 4.7665-0.0239 9.533-0.0254 14.2996-3e-3 2.2804-0.011 4.5609-0.0242 6.8413-0.0171 3.2022-0.0151 6.4039-87e-4 9.6061-0.0138 1.4001-0.0138 1.4001-0.0279 2.8285 0.0495 7.8703 1.7167 14.8379 5.3844 21.8219 3.2451-1.77 5.825-3.733 8.5-6.25 3.1337-2.7064 3.1337-2.7064 6.125-3.0625 3.4688 1.917 5.8541 4.6334 7.375 8.3125 0.0429 2.4453 0.0429 2.4453-1 5-2.1744 1.7672-4.1889 3.181-6.5625 4.625-1.3694 0.8709-2.7379 1.7434-4.1055 2.6172-1.0681 0.6743-1.0681 0.6743-2.1577 1.3623-3.5762 2.2953-7.0582 4.7237-10.5493 7.1455-1.3411 0.9181-2.6822 1.8361-4.0235 2.7539-2.1427 1.4728-4.2405 2.9712-6.3281 4.5235-5.0501 3.6878-7.9913 4.8845-14.2734 3.9726-9.4391-3.0921-13.7916-8.3612-18.5196-16.7734-2.1258-4.6331-2.9934-9.1771-3.4804-14.2266-6.3923 4.5694-12.6472 9.2392-18.711 14.2383-2.289 1.7617-2.289 1.7617-4.8281 3.2422-2.5847 1.5959-4.3481 3.3465-6.4609 5.5195-1.9458 1.6648-3.9275 3.2883-5.9375 4.875-1.0197 0.8224-2.0393 1.6449-3.0899 2.4922-2.9726 1.6328-2.9726 1.6328-5.4687 1.207-3.1168-1.9595-5.8774-4.2062-8.6289-6.6367-1.1504-0.9956-2.3014-1.9904-3.4531-2.9844-0.573-0.4969-1.146-0.9938-1.7364-1.5058-2.4833-2.1323-5.0199-4.1964-7.5605-6.2598-3.0775-2.5033-6.1264-5.0278-9.125-7.625-2.9098-2.588-2.9098-2.588-6-4.5625 0-0.66 0-1.32 0-2-1.1756-0.3712-1.1756-0.3712-2.375-0.75-3.0644-1.4592-3.2423-2.3001-4.625-5.25-2.0336-1.268-2.0336-1.268-4-2 0.3125-1.9375 0.3125-1.9375 1-4 0.99-0.33 1.98-0.66 3-1 0-0.66 0-1.32 0-2 1.218-0.7857 1.218-0.7857 2.4605-1.5872 2.9169-2.2845 2.9169-2.2845 3.1677-6.2634 0.0266-1.5845 0.0256-3.1696 29e-4-4.7541 71e-4-0.8672 0.0143-1.7343 0.0217-2.6278 0.0169-2.867-26e-4-5.7325-0.0239-8.5995 8e-4-1.9954 33e-4-3.9907 73e-4-5.986 29e-4-4.184-0.0119-8.3675-0.0393-12.5514-0.034-5.3534-0.0281-10.7058-93e-4-16.0593 0.0106-4.1222 16e-4-8.2443-0.0134-12.3665-52e-4-1.9731-47e-4-3.9462 15e-4-5.9193 55e-4-2.7647-0.015-5.528-0.0423-8.2926 65e-4-0.8101 0.0131-1.6202 0.0198-2.4549-0.0937-5.6026-1.3363-8.9233-4.5532-13.538-3.679-1.8395-7.9757-1.3782-12-1-2.0224 0.954-4.0283 1.9454-6 3-2.75-0.125-2.75-0.125-5-1-2-3-2-3-1.8328-5.0325 1.0192-2.4078 1.9487-3.0804 4.157-4.448 0.692-0.4372 1.384-0.8744 2.0969-1.3249 0.7479-0.4561 1.4958-0.9122 2.2664-1.3821 0.7666-0.4812 1.5332-0.9624 2.323-1.4582 1.5727-0.9872 3.1484-1.9699 4.7268-2.948 3.2138-1.9974 6.3945-4.0444 9.5752-6.0938 0.5642-0.3592 1.1284-0.7183 1.7097-1.0884 2.8114-1.7949 5.5812-3.6316 8.302-5.56 1.048-0.7348 2.096-1.4696 3.1758-2.2266 0.9178-0.6613 1.8356-1.3226 2.7812-2.0039 3.2683-1.7233 5.069-1.9285 8.7188-1.4336 10.3895 4.8622 18.3673 12.5355 23 23 3.9328 11.0034 3.0784 23.1581 2.9547 34.6479-0.0522 5.7474-0.0458 11.495-0.0514 17.2425-82e-4 5.0293-0.0361 10.0571-0.1055 15.0859-0.0663 4.8946-0.0784 9.7868-0.0547 14.6818-6e-4 1.8527-0.0205 3.7054-0.0608 5.5577-0.4349 11.8249-0.4349 11.8249 5.0966 21.7963 2.2899 2.1501 4.7391 4.0654 7.2211 5.9879 1.667 1.6663 3.3337 3.333 5 5 2.2797 1.4228 2.2797 1.4228 5 1 2.9194-1.7166 5.467-3.7591 8-6 0.6888-0.5259 1.3777-1.0519 2.0875-1.5938 2.6866-3.3801 2.4957-6.5033 2.4777-10.6437 0.0118-0.8282 0.0236-1.6563 0.0358-2.5096 0.0329-2.7369 0.0358-5.4728 0.0357-8.2099 0.0103-1.9057 0.0214-3.8113 0.0332-5.717 0.0194-3.9956 0.0228-7.9908 0.0164-11.9864-6e-3-5.1117 0.0382-10.2216 0.0958-15.3329 0.0371-3.937 0.0419-7.8735 0.0378-11.8106 28e-4-1.8839 0.0169-3.7677 0.0424-5.6514 0.465-9.9628 0.465-9.9628-2.3931-19.2226-1.7401-1.7672-3.3585-3.0392-5.4692-4.3221-0.7799-0.6845-1.5598-1.369-2.3633-2.0742-1.3111-1.0851-2.6236-2.1684-3.9375-3.25-1.7957-1.7709-2.7103-3.3717-3.6992-5.6758 1.1504-1.1504 2.3011-2.3004 3.4531-3.4492 1.0573-1.06 2.1091-2.1253 3.1563-3.1953 3.6773-3.7364 7.4871-7.2307 11.4648-10.6446 1.8539-1.647 3.5795-3.3643 5.3008-5.1484 2.625-2.5625 2.625-2.5625 4.625-2.5625 0.2681-0.6187 0.5362-1.2375 0.8125-1.875C-4.6021 1.3666-3.1883-0.1976 0 0z" />
    <path transform="translate(1522 114)" d="M0 0c2.2385 1.4573 4.2047 2.8771 6.25 4.5625 0.5636 0.4489 1.1271 0.8978 1.7078 1.3604C9.6471 7.2716 11.3241 8.6347 13 10c1.7701 1.4176 3.5409 2.8343 5.3125 4.25 0.718 0.5827 1.436 1.1653 2.1758 1.7656C23.9423 18.7445 27.4704 21.37 31 24c2.7924 2.0824 5.5839 4.1659 8.375 6.25 0.7103 0.5285 1.4205 1.057 2.1523 1.6016 0.6794 0.5079 1.3587 1.0157 2.0586 1.539 0.609 0.4541 1.2179 0.9082 1.8453 1.376C47 36 47 36 49 38c0.2094 3.0217 0.2936 5.9525 0.2905 8.9761 67e-4 0.9302 0.0135 1.8604 0.0204 2.8188 0.019 3.0866 0.0229 6.1731 0.025 9.2598 65e-4 2.1399 0.0132 4.2798 0.0202 6.4197 0.012 4.4908 0.0157 8.9815 0.0145 13.4724-2e-4 5.7594 0.0271 11.5184 0.0615 17.2778 0.0223 4.4214 0.0263 8.8428 0.0253 13.2643 23e-4 2.1235 0.0112 4.247 0.0267 6.3705 0.0195 2.9689 0.0138 5.9368 17e-4 8.9057 0.0113 0.8802 0.0225 1.7603 0.0341 2.6672-0.0617 5.9567-0.0617 5.9567-2.3603 9.0216-2.8405 2.0336-5.7614 3.8647-8.7846 5.6086-1.3404 0.7882-2.6802 1.5773-4.0195 2.3672-0.706 0.4147-1.4119 0.8295-2.1392 1.2568-3.8681 2.2924-7.6967 4.6491-11.5288 7.001-4.5275 2.7746-9.0562 5.5437-13.625 8.25-4.0179 2.3954-7.9671 4.8928-11.9158 7.3999-3.2938 2.09-6.5942 4.1695-9.8967 6.2456-1.4033 0.8838-2.8047 1.7706-4.2031 2.6621-1.6316 1.0369-3.2762 2.0531-4.9219 3.0674-0.8843 0.553-1.7686 1.106-2.6797 1.6758-3.0874 1.2773-4.3201 1.1656-7.4453 0.0117-2.7344-1.8633-2.7344-1.8633-5.75-4.3125-5.1266-4.0882-10.3677-7.9425-15.75-11.6875-6.4843-4.5199-12.7701-9.2232-18.9609-14.1367-2.466-2.0091-2.466-2.0091-5.5391-2.8633-1.3673 0.953-2.7026 1.9537-4 3-0.66 0-1.32 0-2 0-0.33 0.99-0.66 1.98-1 3-2.75 2.3125-2.75 2.3125-6 4-2.625-0.375-2.625-0.375-5-2-2.3125-3.125-2.3125-3.125-4-6 1.2883-3.8805 3.808-5.3476 7.0789-7.5843 4.8698-3.4891 8.966-6.775 10.1898-12.8613 0.5847-5.2777 0.4124-10.5383 0.2469-15.8356-87e-4-1.9463-0.011-3.8925-71e-4-5.8388-58e-4-5.0901-0.0931-10.1754-0.2002-15.2643-0.116-6.199-0.1393-12.3988-0.1719-18.5987-0.0264-4.8191-0.0679-9.6363-0.1564-14.4546-0.0128-0.8832-0.0257-1.7664-0.039-2.6763-0.0244-1.6458-0.0565-3.2916-0.0978-4.9371C-85.2412 46.1661-85.2412 46.1661-83 43c1.8125-1.3687 1.8125-1.3687 4-2.5859 0.7999-0.4529 1.5997-0.9058 2.4238-1.3724 0.8502-0.4675 1.7003-0.935 2.5762-1.4167 1.7399-0.9799 3.4795-1.9604 5.2188-2.9414 0.8327-0.4655 1.6654-0.931 2.5234-1.4107 2.6188-1.4764 5.1937-3.0161 7.7578-4.5854 4.0727-2.4632 8.2276-4.7445 12.4141-7.0078 10.7615-5.8576 21.3766-11.9768 31.9668-18.1375 0.7689-0.447 1.5378-0.8941 2.33-1.3547 0.6837-0.3983 1.3674-0.7966 2.0718-1.207C-5.9657-1.1615-4.2712-1.1087 0 0zM-35 31c-0.2319 12.3955-0.4095 24.7906-0.5181 37.1879-0.0522 5.7569-0.1229 11.5123-0.2363 17.2684-0.1088 5.5568-0.1685 11.1123-0.1944 16.6701-0.0184 2.1184-0.0545 4.2368-0.1085 6.3547-0.7717 11.2821-0.7717 11.2821 3.2128 21.3206 2.5667 1.8223 4.9361 3.0218 7.8445 4.1983 1.3222 0.8444 2.6292 1.7138 3.9062 2.625 1.1973 0.7927 2.3952 1.5843 3.5938 2.375 5.3129 3.5181 10.5609 7.1096 15.7422 10.8203C-0.2144 151.0929-0.2144 151.0929 1 151c0.2784-12.5085 0.4914-25.0162 0.6217-37.5272 0.0626-5.8099 0.1474-11.6177 0.2836-17.4264 0.1306-5.6088 0.2022-11.2155 0.2332-16.8257 0.0222-2.1373 0.0654-4.2745 0.1303-6.4109 0.8103-10.7057 0.8103-10.7057-2.4717-20.5183C-3.5989 49.0102-8.1521 46-13 46c0-0.66 0-1.32 0-2-1.9122-1.3548-1.9122-1.3548-4.375-2.6875-4.7457-2.7379-9.1726-5.7603-13.5937-8.9922-1.907-1.502-1.907-1.502-4.0313-1.3203z" />
    <path transform="translate(1995 117)" d="M0 0c2.1328 1.1289 2.1328 1.1289 4.125 2.5625 0.7683 0.5388 1.5366 1.0777 2.3281 1.6328C7.7138 5.0886 7.7138 5.0886 9 6c1.9541 1.3188 3.9127 2.631 5.875 3.9375 1.0209 0.6806 2.0419 1.3613 3.0938 2.0625 3.669 2.4208 7.3686 4.7875 11.0937 7.1211 2.2168 1.4179 4.3927 2.8647 6.5625 4.3516 0.6221 0.419 1.2443 0.838 1.8853 1.2697 1.2187 0.8219 2.4298 1.6554 3.6318 2.5015 2.5787 1.722 4.3521 2.7546 7.4907 2.7639 3.8116-1.6227 6.2189-4.4731 9.0859-7.3906C60 21 60 21 62.6055 21.0039c2.927 1.2176 3.6831 2.3156 5.207 5.0586 0.4189 0.7335 0.8379 1.467 1.2695 2.2227C69.385 28.8511 69.6879 29.417 70 30c-2.5484 2.7094-4.9259 4.9519-8.056 6.9808-6.0225 3.9746-6.0225 3.9746-9.6513 10.0237-1.1613 5.8635-1.0003 11.814-0.9216 17.765-0.0107 1.9276-0.0247 3.8552-0.042 5.7827-0.0221 4.0297-7e-4 8.0563 0.0515 12.0857 0.0627 5.1334 0.0131 10.2584-0.0701 15.3912-0.0512 3.9789-0.0401 7.9558-0.0112 11.9349 61e-4 1.89-69e-4 3.7802-0.0406 5.6699-0.1331 9.2408-0.0683 16.3789 6.5102 23.381C60.4018 141.517 63.117 143.7896 66 146c4.0886-1.5523 7.4036-3.4981 11-6 0.99-0.66 1.98-1.32 3-2 1.32 0.33 2.64 0.66 4 1 0.33 2.97 0.66 5.94 1 9-6.3718 4.5045-12.8025 8.9175-19.25 13.3125-6.4935 4.4271-12.9407 8.9073-19.2979 13.5286C44.9779 175.9077 43.4894 176.9546 42 178c-1.2723 0.9088-1.2723 0.9088-2.5703 1.8359C36.3105 181.3303 35.2659 181.0833 32 180c-1.9988-1.66-3.7339-3.2661-5.5195-5.1289-0.5035-0.5091-1.0069-1.0182-1.5256-1.5427-1.5988-1.6211-3.1831-3.2556-4.7674-4.8909-1.0844-1.1044-2.1696-2.208-3.2559-3.3105C14.277 162.4283 11.6353 159.7176 9 157c-3.6559 1.4081-6.6231 2.9623-9.8125 5.25-0.8766 0.6265-1.7531 1.253-2.6562 1.8984-2.1294 1.5576-4.2419 3.1324-6.3438 4.7266-1.3957 1.0418-2.7916 2.0835-4.1875 3.125-1.5372 1.1756-1.5372 1.1756-3.1055 2.375-10.5752 7.8987-10.5752 7.8987-15.75 7.1797C-33.917 181.2801-33.917 181.2801-35 181c-0.9861-0.2243-1.9723-0.4486-2.9883-0.6797-14.3408-3.8085-26.3112-12.4481-34.539-24.7617C-74.663 151.848-75.9613 148.1381-77 144c-0.2269-0.8044-0.4537-1.6087-0.6875-2.4375-1.6046-13.1578 1.844-23.9612 9.2188-34.8164 0.4846-0.5762 0.9693-1.1524 1.4687-1.7461 0.66 0 1.32 0 2 0 0.2501-0.5736 0.5002-1.1473 0.7578-1.7383 1.4151-2.5766 3.0463-4.3666 5.1172-6.4492 0.678-0.6948 1.3561-1.3896 2.0547-2.1055C-54.9691 92.9746-53.659 92.3994-51 92c0-0.66 0-1.32 0-2 2.1875-1.5078 2.1875-1.5078 5-3.125 0.9281-0.5388 1.8563-1.0777 2.8125-1.6328C-42.4656 84.8323-41.7437 84.4223-41 84c-0.5569-0.3519-1.1138-0.7038-1.6875-1.0664-9.6414-6.2376-19.1165-13.2538-22.75-24.6836-1.5182-7.8255-0.7918-16.6374 3.2891-23.5547 6.737-9.9451 16.6598-15.2413 27.2109-20.5703 2.0214-1.0315 4.0422-2.0641 6.0625-3.0977 0.99-0.5054 1.98-1.0109 3-1.5317 2.6733-1.3907 5.3095-2.8301 7.9375-4.3042 0.7656-0.4249 1.5312-0.8498 2.3201-1.2876 1.4116-0.7876 2.8167-1.5874 4.2133-2.4014C-7.1824-0.828-4.6275-1.4756 0 0zM-45 35c-3.9605 3.9605-7.1112 7.31-7.375 13.0625 0.1017 6.3242 2.5953 11.2207 7.1016 15.625 2.02 1.5961 4.0791 2.9659 6.2734 4.3125 0.8263 0.5143 1.6526 1.0287 2.5039 1.5586 5.9327 3.4629 11.8361 5.6953 18.4336 7.5703 2.6096 0.7423 5.1357 1.5802 7.6875 2.4961 3.3508 1.1412 6.6626 1.8513 10.1484 2.4609 0.9815 0.1733 1.963 0.3465 2.9742 0.5249C3.4909 82.7393 4.2342 82.8677 5 83c0.5973-7.6057 0.9774-15.1998 0.8008-22.8281-0.019-1.2469-0.0379-2.4937-0.0574-3.7783C4.7791 51.9918 3.017 50.4725-0.5 47.75c-1.8214-0.7039-3.6464-1.4047-5.5059-2.001-3.7248-1.3991-6.9303-3.7034-10.2441-5.874-1.3515-0.8459-2.7044-1.6897-4.0586-2.5312-3.7392-2.3538-7.3914-4.822-10.9922-7.3829C-36.3842 27.0862-41.1053 31.9546-45 35zM-29 89c-4.9603 9.9205-2.958 21.7488-0.1836 32.0234C-27.0535 127.3869-23.9753 132.6235-20 138c0.9281 1.3922 0.9281 1.3922 1.875 2.8125 3.2641 3.3601 5.6274 4.524 10.125 6.1875 4.29 0 8.58 0 13 0 0-16.5 0-33 0-50-6.27-1.65-12.54-3.3-19-5-6.4375-1.8125-6.4375-1.8125-8.8711-2.5195C-25.2866 88.8532-25.2866 88.8532-29 89z" />
    <path transform="translate(789 117)" d="M0 0c2.5078 1.3828 2.5078 1.3828 5.125 3.125 0.9655 0.6342 1.931 1.2684 2.9258 1.9219C9.024 5.6914 9.9973 6.3359 11 7c1.7684 1.1289 3.5392 2.2539 5.3125 3.375 3.6355 2.313 7.2648 4.6354 10.8879 6.9678 1.1942 0.7679 2.3893 1.5342 3.5855 2.2988 2.8273 1.8092 5.6297 3.6399 8.4094 5.5225 0.9668 0.6471 1.9336 1.2942 2.9297 1.9609 1.2723 0.8701 1.2723 0.8701 2.5703 1.7578 2.177 1.2755 2.177 1.2755 4.2969 1.0547 3.7012-1.7282 6.5283-4.64 9.5703-7.3203C61 21 61 21 63.1758 21.1133 65.9761 22.4745 67.2802 24.4499 69 27c0.3741 1.3225 0.7161 2.6553 1 4-1.4959 1.3794-2.997 2.7533-4.5 4.125-0.8353 0.7657-1.6706 1.5314-2.5312 2.3203C60 40 60 40 57.9999 40.9001 55.2559 42.3052 53.829 43.4895 52 46c-1.2846 6.251-1.1759 12.4672-1.1328 18.8281-0.0105 1.8732-0.023 3.7464-0.0376 5.6196-0.0208 3.9243-0.0117 7.8472 0.0176 11.7715 0.0343 5.0092-0.0125 10.0138-0.083 15.0225-0.0441 3.8695-0.041 7.738-0.0245 11.6077 17e-4 1.8451-0.0119 3.6902-0.0415 5.535-0.3276 10.4326-0.3276 10.4326 3.4366 19.8606 2.4956 2.5156 5.0454 4.6171 7.8652 6.755 1.6876 1.6454 3.3602 3.3069 5 5 4.5471-1.6469 8.0301-4.0254 11.9141-6.8555 0.6883-0.3777 1.3767-0.7554 2.0859-1.1445 0.99 0.33 1.98 0.66 3 1 0.7305 1.8477 0.7305 1.8477 1.1875 4.0625 0.1586 0.7335 0.3171 1.467 0.4805 2.2227 0.1095 0.5659 0.2191 1.1318 0.332 1.7148-8.0469 6.3947-16.3668 12.268-24.9375 17.9375-4.0383 2.6731-7.9791 5.436-11.875 8.3125-10.8193 7.904-10.8193 7.904-14.1741 7.5264-2.3485-0.9056-3.5411-1.9596-5.2907-3.7608-0.5962-0.6058-1.1924-1.2117-1.8067-1.8359-0.6116-0.6368-1.2233-1.2736-1.8535-1.9297-0.6078-0.6213-1.2156-1.2427-1.8418-1.8828-1.1935-1.2206-2.3846-2.4436-3.573-3.6692-4.7961-4.953-4.7961-4.953-9.9602-9.5105C9.8006 157.4656 8.9138 156.7438 8 156c-0.6819 0.5543-1.3638 1.1086-2.0664 1.6797-3.8742 3.0642-7.8483 5.9777-11.846 8.8782-3.3346 2.4197-6.6437 4.8591-9.9001 7.3835-1.2083 0.9154-2.4167 1.8308-3.625 2.7461-0.542 0.4339-1.0839 0.8679-1.6423 1.3149C-25.4496 181.2633-28.7819 181.6703-34 181c-15.0296-3.049-28.7776-11.758-37.4375-24.5625-4.6808-8.6384-8.2331-20.4525-5.3828-30.1172 0.2707-0.7657 0.5414-1.5314 0.8203-2.3203 0.2501-0.8895 0.5002-1.7789 0.7578-2.6953C-72.9537 113.9031-69.0473 108.7768-64 103c0.6574-0.8521 1.3148-1.7041 1.9922-2.582 1.9077-2.2974 3.7364-3.9673 6.1328-5.7305 0.6832-0.5118 1.3664-1.0235 2.0703-1.5508C-52 92-52 92-50 92c0.495-1.485 0.495-1.485 1-3 2.0664-1.3867 2.0664-1.3867 4.5625-2.6875 0.8263-0.437 1.6526-0.874 2.5039-1.3242C-41.2955 84.6621-40.6574 84.336-40 84c-0.7734-0.4847-1.5469-0.9694-2.3437-1.4687-11.5279-7.419-19.6368-14.2409-23.2852-27.8829C-67.0693 46.0667-63.697 38.0454-59 31c8.3415-9.0548 19.7321-14.5835 30.6875-19.8672 3.1772-1.5426 6.2807-3.1878 9.375-4.8906 0.8525-0.4654 1.7049-0.9309 2.5833-1.4104 1.6635-0.9126 3.3212-1.8358 4.9721-2.771C-4.2507-1.8217-4.2507-1.8217 0 0zM-39.875 31.75c-0.8637 0.5105-1.7273 1.0209-2.6172 1.5469C-45.0027 35.0018-47.0043 36.7165-49 39c0 0.66 0 1.32 0 2-0.66 0-1.32 0-2 0-0.9374 2.8123-1.1347 4.5875-1.125 7.5-26e-4 0.7734-52e-4 1.5469-78e-4 2.3438C-52.0815 53.1845-52.0815 53.1845-51 56c0.66 0 1.32 0 2 0 0.165 0.6806 0.33 1.3612 0.5 2.0625C-43.7643 67.3366-33.2284 71.4171-24 75c3.3215 0.9188 6.5773 1.6054 10 2 0 0.66 0 1.32 0 2 2.0396 0.5084 4.0818 1.0063 6.125 1.5 1.137 0.2784 2.2739 0.5569 3.4453 0.8438C-1.1758 81.9664 1.7011 82.0486 5 82 7.0578 66.0349 7.0578 66.0349 3.8516 50.8882 0.8008 47.786-2.9786 46.3009-7.0068 44.8159c-3.3688-1.379-6.2473-3.4612-9.2432-5.5034-11.298-8.9871-11.298-8.9871-23.625-7.5625zM-28 88c-4.7868 7.3298-4.8052 14.4051-4 23 0.5983 2.0215 1.2627 4.025 2 6 0.272 0.9436 0.544 1.8872 0.8242 2.8594C-26.1605 129.9558-21.0323 139.1111-12 145c5.9594 2.7428 5.9594 2.7428 17 2 0-16.5 0-33 0-50-6.27-1.65-12.54-3.3-19-5-4.6719-1.3195-9.3404-2.6394-14-4z" />
    <path transform="translate(489 115)" d="M0 0c1.4224 1.9539 2.6878 3.8771 3.9375 5.9375C4.734 7.2146 5.5323 8.4906 6.332 9.7656c0.4275 0.6839 0.855 1.3677 1.2954 2.0723 2.4306 3.8287 4.969 7.5852 7.4976 11.3496 3.8414 5.7332 7.6196 11.4937 11.2695 17.3516 2.2968 3.5206 4.8417 6.8515 7.418 10.1718C35 53 35 53 34.8481 55.4409c-1.0897 3.288-2.3035 3.9997-5.2309 5.7935-0.9124 0.5693-1.8248 1.1387-2.7649 1.7253-0.9825 0.5908-1.965 1.1816-2.9773 1.7903-1.0025 0.6198-2.005 1.2396-3.0378 1.8782C17.9019 68.4368 14.9544 70.223 12 72c-1.1067 0.6668-1.1067 0.6668-2.2358 1.3472-2.4484 1.4717-4.8991 2.9391-7.3572 4.3945-4.6498 2.7635-9.1906 5.6766-13.7195 8.6333-6.1358 4.0028-12.3184 7.918-18.5625 11.75-1.1511 0.7104-1.1511 0.7104-2.3254 1.4351-0.7151 0.4365-1.4301 0.873-2.1668 1.3227-0.9453 0.5784-0.9453 0.5784-1.9097 1.1685C-38 103-38 103-41 104c-0.5455 8.0681-0.5455 8.0681 2.7656 15.0703 2.6634 1.8255 5.4063 3.3711 8.2344 4.9297 2.4461 1.5607 4.8457 3.1884 7.25 4.8125 0.6287 0.4171 1.2573 0.8342 1.905 1.2639C-14.1085 134.5478-7.5477 139.2582-1 144c5.193-3.3207 10.0524-6.715 14.5898-10.8984C15 132 15 132 17 132c0-0.66 0-1.32 0-2 1.7799-1.4832 3.6266-2.8867 5.5-4.25 1.099-0.806 2.1979-1.612 3.2969-2.418 1.057-0.7695 2.114-1.5391 3.2031-2.332 1.5856-1.1844 3.1694-2.3714 4.75-3.5625 1.0833-0.8125 2.1667-1.625 3.25-2.4375 3.7735 1.7074 5.2244 3.1825 7 7 0.4766 2.3047 0.4766 2.3047 0 5-1.872 2.2522-4.0834 4.0019-6.375 5.8125-0.6033 0.5021-1.2066 1.0042-1.8281 1.5215C31.3079 138 31.3079 138 29 138c0 0.66 0 1.32 0 2-1.6523 1.4805-1.6523 1.4805-3.9375 3.1875-0.8302 0.6291-1.6603 1.2581-2.5156 1.9063-0.8405 0.629-1.681 1.2581-2.5469 1.9062-5.4978 4.1539-10.787 8.497-16 13-5.2136 4.5035-10.5095 8.8359-16 13-1.5643 1.206-3.1268 2.4143-4.6875 3.625-0.7412 0.5698-1.4824 1.1395-2.2461 1.7266-1.8553 1.48-3.5762 3.0373-5.3164 4.6484-2.75 2-2.75 2-5.0508 1.9023-3.5097-1.1732-5.7593-3.0139-8.6367-5.3398-1.1572-0.9201-2.3161-1.838-3.4766-2.7539-0.5933-0.4694-1.1865-0.9388-1.7978-1.4224-2.8053-2.1748-5.6984-4.2185-8.6006-6.2612-6.6911-4.7283-13.2475-9.6262-19.7891-14.5586-0.5984-0.4458-1.1969-0.8917-1.8134-1.3511-1.288-0.9875-2.5205-2.0471-3.7334-3.1255-1.852-1.3147-1.852-1.3147-4.3438-0.9921-2.8522 1.0262-4.4348 2.2668-6.6328 4.3398C-94.0939 159-94.0939 159-98 159c-1.6406-1.6094-1.6406-1.6094-3.25-3.75-0.5414-0.6961-1.0828-1.3922-1.6406-2.1094C-104 151-104 151-103.9023 148.918c1.1406-2.4244 2.3892-3.3423 4.5898-4.8555 2.6715-1.8849 5.2225-3.789 7.6875-5.9375C-89 136-89 136-87 136c-0.0178-1.154-0.0355-2.308-0.0538-3.497-0.1622-10.8734-0.2821-21.7466-0.3607-32.621-0.0418-5.5908-0.0984-11.1807-0.189-16.7709-0.0869-5.3947-0.1348-10.7885-0.1555-16.1838-0.0148-2.0586-0.0437-4.1172-0.0868-6.1754-0.0581-2.8835-0.0661-5.7632-0.0624-8.6472-0.0288-0.8516-0.0575-1.7032-0.0872-2.5807C-87.9616 47.0995-87.8508 45.2733-87 43c2.4165-2.2499 5.016-3.6282 8-5 0.972-0.5014 1.9439-1.0029 2.9453-1.5195C-75.0466 35.9919-74.0386 35.5034-73 35c1.3958-0.7281 2.7888-1.4617 4.1797-2.1992 0.7551-0.4001 1.5101-0.8002 2.2881-1.2124 0.7944-0.4211 1.5887-0.8421 2.4072-1.2759 5.9258-3.1309 11.868-6.2154 17.875-9.1875 6.7161-3.3235 13.3613-6.7747 20-10.25 1.9687-1.0275 3.9374-2.0548 5.9063-3.082 3.1302-1.6336 6.2556-3.2754 9.3749-4.9297 1.0622-0.553 2.1244-1.106 3.2188-1.6758 0.8714-0.4602 1.7428-0.9204 2.6406-1.3945C-3-1-3-1 0 0zM-41 32c-0.4388 2.462-0.4388 2.462-0.3406 5.3677 3e-4 1.121 5e-4 2.242 7e-4 3.397 0.0155 1.2146 0.031 2.4292 0.0469 3.6806 43e-4 1.2402 85e-4 2.4803 0.0129 3.758 0.014 3.2981 0.0409 6.5956 0.0741 9.8935 0.0307 3.3648 0.0444 6.7297 0.0595 10.0946C-41.1133 74.7944-41.0631 81.3972-41 88c1.7409-0.9364 3.4801-1.8758 5.2188-2.8164 1.453-0.7842 1.453-0.7842 2.9355-1.5842 3.2863-1.847 6.3891-3.8824 9.498-6.0096C-18.9662 74.6227-14.4732 71.8261-10 69c-1.2652-3.4207-2.7167-6.2983-4.793-9.293-0.5448-0.7906-1.0895-1.5813-1.6508-2.396-0.8632-1.2367-0.8632-1.2367-1.7437-2.4985-0.5857-0.8477-1.1714-1.6954-1.7749-2.5688-3.5275-5.099-7.0737-10.1855-10.6704-15.2359C-32 35-32 35-33.4922 32.2422-33.9898 31.5023-34.4873 30.7623-35 30c-3.1849-0.2774-3.1849-0.2774-6 2z" />
    <path transform="translate(1813 114)" d="M0 0c10.5774 5.1458 18.4413 17.299 26 26 6.9199-6.6967 13.1993-14.0277 19.4922-21.3086 4.1095-4.6099 4.1095-4.6099 7.2578-5.2539 4.0665 0.7038 5.8049 2.3614 8.7344 5.1523 3.3182 3.0874 6.6506 2.6788 10.9765 2.629 4.443-0.3828 7.444-1.9312 10.3164-5.3086 2.9266-2.5151 4.608-2.357 8.4102-2.2227 1.0661 0.0245 2.1321 0.049 3.2305 0.0742C97 0 97 0 98 1c-0.105 15.2234-3.9324 31.9324-15 43-0.66 0-1.32 0-2 0 0 0.66 0 1.32 0 2-11.0049 6.089-17.9053 8.3774-30.1445 4.9492-5.4988-1.8279-10.2015-4.5091-15.0899-7.582-0.7086-0.4449-1.4173-0.8898-2.1474-1.3482C33.0842 41.6828 32.5502 41.3465 32 41c-0.1243 12.6396-0.1892 25.2781-0.1788 37.9183 3e-3 5.87-0.0143 11.7384-0.0783 17.6081-0.061 5.6676-0.0683 11.3329-0.0387 17.0007 19e-4 2.1594-0.0154 4.3188-0.0524 6.4779-0.6868 10.7719-0.6868 10.7719 2.4895 20.7126 2.8467 2.925 6.1144 4.7457 9.8587 6.2824 3.5295-1.9765 6.9845-3.9491 10.3125-6.25C57 139 57 139 59 139c0-0.66 0-1.32 0-2 2.625-0.9375 2.625-0.9375 6-1 2.5973 1.9322 4.5768 4.0872 6 7 0.0313 2.4688 0.0313 2.4688-1 5-2.5898 2.2109-2.5898 2.2109-5.9375 4.375-1.2033 0.794-2.4064 1.5883-3.6094 2.3828-0.5936 0.3845-1.1872 0.7689-1.7988 1.1651-2.1463 1.3974-4.2465 2.8545-6.3418 4.3271-0.7876 0.5517-1.5752 1.1034-2.3867 1.6719-3.1902 2.2659-6.3635 4.5543-9.5337 6.8481-1.5882 1.1486-3.1777 2.2955-4.7686 3.4404-3.3007 2.3765-6.5959 4.7535-9.8305 7.2193-0.8598 0.6419-1.7196 1.2839-2.6055 1.9453-0.7077 0.544-1.4154 1.088-2.1445 1.6484C19 184 19 184 16.6445 183.9727c-3.5844-1.3184-6.2416-3.5014-9.1445-5.9102-1.2416-1.0033-2.4838-2.0059-3.7266-3.0078-0.6268-0.5095-1.2536-1.019-1.8994-1.544-2.8801-2.3218-5.8115-4.5747-8.749-6.8232-0.5352-0.411-1.0704-0.8219-1.6218-1.2454C-12.6413 162.2633-16.8116 159.1207-21 156c-0.7477 0.5285-1.4953 1.057-2.2656 1.6016-0.9849 0.6677-1.9697 1.3354-2.9844 2.0234-0.9745 0.6729-1.9491 1.3458-2.9531 2.0391C-32 163-32 163-34.2187 162.4375-37.1344 160.0845-38.2849 157.3078-40 154c1.98-0.99 1.98-0.99 4-2 0-0.66 0-1.32 0-2 1.6875-1.332 1.6875-1.332 4-2.8125 0.7425-0.4808 1.485-0.9616 2.25-1.457C-27 144-27 144-25.0178 143.0485c4.2326-2.1346 4.2326-2.1346 6.7678-5.9442 0.2933-2.3506 0.3316-4.5899 0.2852-6.9585 0.014-0.882 0.028-1.764 0.0424-2.6728 0.0352-2.9128 0.0119-5.8218-0.0151-8.7347 54e-4-2.0316 0.0132-4.0631 0.0232-6.0947 0.0118-4.2599-53e-4-8.5184-0.0427-12.7781-0.0455-5.4402-0.0195-10.8772 0.0285-16.3173 0.0291-4.198 0.0197-8.3953-1e-3-12.5934-53e-4-2.0041 11e-4-4.0083 0.0199-6.0123 0.3957-12.8968 0.3957-12.8968-5.1568-24.1254C-24.3732 39.5403-25.6831 38.2665-27 37c0-0.66 0-1.32 0-2-5.3662 2.5092-5.3662 2.5092-10.25 5.8125C-39 42-39 42-41 42c-3.8214-1.9107-5.6823-5.0468-7-9 6.7298-5.4382 13.7655-10.262 21-15 7.528-4.9792 14.9857-10.044 22.3828-15.2148C-2 1-2 1 0 0z" />
    <path transform="translate(2351 86)" d="M0 0c0.33 12.87 0.66 25.74 1 39 11.88 0.33 23.76 0.66 36 1 0 9.0065 0 9.0065-4.25 13.75-0.7889 0.9023-1.5778 1.8047-2.3906 2.7344C29.5808 57.3145 28.8022 58.1447 28 59c-0.5923 0.7038-1.1846 1.4077-1.7949 2.1328-2.8018 2.3725-4.2173 2.335-7.8457 2.2578-1.0699-0.0129-2.1399-0.0258-3.2422-0.039-1.1112-0.0336-2.2224-0.0671-3.3672-0.1016-1.69-0.0271-1.69-0.0271-3.4141-0.0547C5.5564 63.1482 2.7786 63.0824 0 63c-0.1944 13.3182-0.3121 26.6347-0.3342 39.9544-0.0127 6.1863-0.0509 12.3702-0.1492 18.5559-0.0941 5.979-0.1188 11.9548-0.0971 17.9345-36e-4 2.2717-0.0315 4.5435-0.0849 6.8146-0.4697 14.9156-0.4697 14.9156 6.7847 27.3805C8.9504 176.3103 11.8656 178.6914 15 181c0.7286-0.3931 1.4573-0.7862 2.208-1.1912 7.1697-3.8678 7.1697-3.8678 9.9756-3.6018 2.9284 1.2784 4.1703 3.1104 5.8164 5.793-0.1245 2.5037-0.1245 2.5037-1 5-1.8599 1.4788-1.8599 1.4788-4.3203 2.6914-0.9173 0.4645-1.8345 0.9289-2.7796 1.4075-0.9983 0.483-1.9966 0.966-3.0251 1.4636-2.0956 1.0457-4.1907 2.0927-6.2852 3.1406-1.6264 0.8054-1.6264 0.8054-3.2856 1.627-3.2817 1.6585-6.5121 3.3895-9.7378 5.1543-1.0279 0.5574-2.0557 1.1149-3.1147 1.6892-1.9764 1.0746-3.947 2.1597-5.9112 3.2563-6.5657 3.52-6.5657 3.52-10.8061 3.7381-3.6496-1.5589-6.1629-3.8989-8.9219-6.668-1.1408-1.1002-2.2841-2.1978-3.4297-3.293-0.8503-0.8167-0.8503-0.8167-1.7178-1.6499-2.3982-2.2428-4.9222-4.309-7.4775-6.3696-3.3197-2.6772-6.6296-5.3579-9.875-8.125-0.6432-0.5453-1.2865-1.0905-1.9492-1.6523C-52 182-52 182-52 180c-3.55 1.988-6.8897 3.92-10.1875 6.3125C-65 188-65 188-67 187.8164c-2.4403-0.9961-3.3127-2.0436-4.8125-4.1914-0.4396-0.6059-0.8791-1.2117-1.332-1.8359C-74 180-74 180-73 177c2.625-1.832 2.625-1.832 6-3.8125 1.7017-1.0053 3.4022-2.0139 5.0713-3.0723C-60 169-60 169-57.7045 168.1353-54.7098 166.7596-53.0726 165.5909-51 163c1.3392-6.2964 1.096-12.5243 0.9492-18.9336-0.0117-1.8804-0.0197-3.7607-0.0242-5.6411-0.0183-3.9373-0.0655-7.8727-0.1362-11.8093-0.0904-5.0349-0.1336-10.0686-0.1582-15.1041-0.0249-4.8153-0.0699-9.6304-0.1189-14.4455-0.0124-1.3702-0.0124-1.3702-0.0252-2.768-0.028-2.5991-0.0699-5.1975-0.1166-7.7962-7e-3-0.7602-0.0139-1.5204-0.0211-2.3037-0.1236-5.6172-0.4645-11.1429-4.4113-15.4485C-58.8659 66.4842-62.761 65.2191-67 64c-0.4387-4.3206-0.4274-6.3872 2.0966-10.0057 0.9743-1.0247 1.9682-2.0309 2.9771-3.0214 0.8099-0.8355 0.8099-0.8355 1.6361-1.6878 1.7848-1.8308 3.5943-3.6346 5.4074-5.4374 1.2548-1.2672 2.5088-2.5352 3.762-3.8039 2.6298-2.6536 5.2726-5.2934 7.9245-7.9249 3.3897-3.3666 6.7393-6.7702 10.0794-10.186 2.5802-2.6282 5.1834-5.2327 7.7938-7.8311 1.2444-1.2453 2.4811-2.4985 3.7096-3.7596 1.7256-1.7653 3.4803-3.4956 5.2458-5.2209 0.4971-0.522 0.9941-1.044 1.5062-1.5818C-9.7563-1.3187-8.1738 0 0 0z" />
    <path transform="translate(87 30)" d="M0 0c0 0.66 0 1.32 0 2 1.4734 0.1856 1.4734 0.1856 2.9766 0.375C7.1832 2.9769 11.2597 3.9541 15.375 5c0.7232 0.1779 1.4463 0.3558 2.1914 0.5391C22.8732 6.8732 22.8732 6.8732 24 8c6.2273 0.973 10.7309-0.3019 16.0469-3.5547C42.528 2.6093 44.3084 0.5741 46-2c4.2191 0.4794 6.7966 1.1663 10 4-0.66 1.65-1.32 3.3-2 5-0.66 0-1.32 0-2 0-0.2694 0.5839-0.5388 1.1679-0.8164 1.7695C46.8929 16.8553 39.1089 22.5332 32 28c-0.8392 0.6548-1.6784 1.3097-2.543 1.9844C16.8256 39.3826 4.3635 40.4045-11 39c-3.9829-0.6404-7.8714-1.5742-11.781-2.5586-8.3959-2.0873-17.6115-3.5043-25.4299 1.0703C-51.7718 40.4739-54.3997 44.1971-57 48c-3.8158-0.6518-6.0288-1.469-9-4 1.3838-13.9442 10.3835-26.6106 20.9453-35.4258C-36.4739 2-36.4739 2-32 2c0-0.66 0-1.32 0-2 11.0882-2.6939 20.8766-2.4097 32 0z" />
</svg>